%TF.GenerationSoftware,KiCad,Pcbnew,(5.1.9)-1*%
%TF.CreationDate,2021-01-13T23:08:58-08:00*%
%TF.ProjectId,lab-1,6c61622d-312e-46b6-9963-61645f706362,rev?*%
%TF.SameCoordinates,Original*%
%TF.FileFunction,Legend,Top*%
%TF.FilePolarity,Positive*%
%FSLAX46Y46*%
G04 Gerber Fmt 4.6, Leading zero omitted, Abs format (unit mm)*
G04 Created by KiCad (PCBNEW (5.1.9)-1) date 2021-01-13 23:08:58*
%MOMM*%
%LPD*%
G01*
G04 APERTURE LIST*
%ADD10C,0.120000*%
%ADD11C,0.150000*%
G04 APERTURE END LIST*
D10*
%TO.C,D1*%
X119970000Y-77780000D02*
X117110000Y-77780000D01*
X119970000Y-79700000D02*
X119970000Y-77780000D01*
X117110000Y-79700000D02*
X119970000Y-79700000D01*
%TO.C,D2*%
X117355000Y-84780000D02*
X120215000Y-84780000D01*
X120215000Y-84780000D02*
X120215000Y-82860000D01*
X120215000Y-82860000D02*
X117355000Y-82860000D01*
%TO.C,D3*%
X119970000Y-87940000D02*
X117110000Y-87940000D01*
X119970000Y-89860000D02*
X119970000Y-87940000D01*
X117110000Y-89860000D02*
X119970000Y-89860000D01*
%TO.C,D4*%
X117110000Y-94940000D02*
X119970000Y-94940000D01*
X119970000Y-94940000D02*
X119970000Y-93020000D01*
X119970000Y-93020000D02*
X117110000Y-93020000D01*
D11*
%TO.C,D5*%
X90645000Y-79780000D02*
X96045000Y-79780000D01*
X90645000Y-82780000D02*
X96145000Y-82780000D01*
X96145000Y-81780000D02*
X96145000Y-82780000D01*
D10*
%TO.C,J1*%
X106620000Y-77410000D02*
X111820000Y-77410000D01*
X111820000Y-77410000D02*
X111820000Y-77980000D01*
X111820000Y-79500000D02*
X111820000Y-80520000D01*
X111820000Y-82040000D02*
X111820000Y-83060000D01*
X111820000Y-84580000D02*
X111820000Y-85600000D01*
X111820000Y-87120000D02*
X111820000Y-88140000D01*
X111820000Y-89660000D02*
X111820000Y-90680000D01*
X111820000Y-92200000D02*
X111820000Y-93220000D01*
X111820000Y-94740000D02*
X111820000Y-95760000D01*
X111820000Y-97280000D02*
X111820000Y-98300000D01*
X111820000Y-99820000D02*
X111820000Y-100840000D01*
X111820000Y-102360000D02*
X111820000Y-103380000D01*
X111820000Y-104900000D02*
X111820000Y-105920000D01*
X111820000Y-107440000D02*
X111820000Y-108460000D01*
X111820000Y-109980000D02*
X111820000Y-111000000D01*
X111820000Y-112520000D02*
X111820000Y-113540000D01*
X111820000Y-115060000D02*
X111820000Y-116080000D01*
X111820000Y-117600000D02*
X111820000Y-118620000D01*
X111820000Y-120140000D02*
X111820000Y-121160000D01*
X111820000Y-122680000D02*
X111820000Y-123700000D01*
X111820000Y-125220000D02*
X111820000Y-126240000D01*
X111820000Y-127760000D02*
X111820000Y-128330000D01*
X106620000Y-128330000D02*
X111820000Y-128330000D01*
X106620000Y-77410000D02*
X106620000Y-77980000D01*
X106620000Y-79500000D02*
X106620000Y-80520000D01*
X106620000Y-82040000D02*
X106620000Y-83060000D01*
X106620000Y-84580000D02*
X106620000Y-85600000D01*
X106620000Y-87120000D02*
X106620000Y-88140000D01*
X106620000Y-89660000D02*
X106620000Y-90680000D01*
X106620000Y-92200000D02*
X106620000Y-93220000D01*
X106620000Y-94740000D02*
X106620000Y-95760000D01*
X106620000Y-97280000D02*
X106620000Y-98300000D01*
X106620000Y-99820000D02*
X106620000Y-100840000D01*
X106620000Y-102360000D02*
X106620000Y-103380000D01*
X106620000Y-104900000D02*
X106620000Y-105920000D01*
X106620000Y-107440000D02*
X106620000Y-108460000D01*
X106620000Y-109980000D02*
X106620000Y-111000000D01*
X106620000Y-112520000D02*
X106620000Y-113540000D01*
X106620000Y-115060000D02*
X106620000Y-116080000D01*
X106620000Y-117600000D02*
X106620000Y-118620000D01*
X106620000Y-120140000D02*
X106620000Y-121160000D01*
X106620000Y-122680000D02*
X106620000Y-123700000D01*
X106620000Y-125220000D02*
X106620000Y-126240000D01*
X106620000Y-127760000D02*
X106620000Y-128330000D01*
X111820000Y-77980000D02*
X113180000Y-77980000D01*
%TO.C,SW1*%
X133475001Y-106945001D02*
X133595001Y-106945001D01*
X131325001Y-106945001D02*
X132465001Y-106945001D01*
X130195001Y-106945001D02*
X130315001Y-106945001D01*
X130195001Y-102545001D02*
X130195001Y-106945001D01*
X130315001Y-102545001D02*
X130195001Y-102545001D01*
X132465001Y-102545001D02*
X131325001Y-102545001D01*
X133595001Y-102545001D02*
X133475001Y-102545001D01*
X133595001Y-106945001D02*
X133595001Y-102545001D01*
%TO.C,SW2*%
X133780000Y-113960000D02*
X133780000Y-109560000D01*
X133780000Y-109560000D02*
X133660000Y-109560000D01*
X132650000Y-109560000D02*
X131510000Y-109560000D01*
X130500000Y-109560000D02*
X130380000Y-109560000D01*
X130380000Y-109560000D02*
X130380000Y-113960000D01*
X130380000Y-113960000D02*
X130500000Y-113960000D01*
X131510000Y-113960000D02*
X132650000Y-113960000D01*
X133660000Y-113960000D02*
X133780000Y-113960000D01*
%TO.C,SW3*%
X133660000Y-120945000D02*
X133780000Y-120945000D01*
X131510000Y-120945000D02*
X132650000Y-120945000D01*
X130380000Y-120945000D02*
X130500000Y-120945000D01*
X130380000Y-116545000D02*
X130380000Y-120945000D01*
X130500000Y-116545000D02*
X130380000Y-116545000D01*
X132650000Y-116545000D02*
X131510000Y-116545000D01*
X133780000Y-116545000D02*
X133660000Y-116545000D01*
X133780000Y-120945000D02*
X133780000Y-116545000D01*
%TO.C,SW4*%
X133780000Y-127930000D02*
X133780000Y-123530000D01*
X133780000Y-123530000D02*
X133660000Y-123530000D01*
X132650000Y-123530000D02*
X131510000Y-123530000D01*
X130500000Y-123530000D02*
X130380000Y-123530000D01*
X130380000Y-123530000D02*
X130380000Y-127930000D01*
X130380000Y-127930000D02*
X130500000Y-127930000D01*
X131510000Y-127930000D02*
X132650000Y-127930000D01*
X133660000Y-127930000D02*
X133780000Y-127930000D01*
%TO.C,U1*%
X78760000Y-112000000D02*
X88880000Y-112000000D01*
X88880000Y-119140000D02*
X83820000Y-119140000D01*
%TO.C,D1*%
D11*
X117371904Y-80842380D02*
X117371904Y-79842380D01*
X117610000Y-79842380D01*
X117752857Y-79890000D01*
X117848095Y-79985238D01*
X117895714Y-80080476D01*
X117943333Y-80270952D01*
X117943333Y-80413809D01*
X117895714Y-80604285D01*
X117848095Y-80699523D01*
X117752857Y-80794761D01*
X117610000Y-80842380D01*
X117371904Y-80842380D01*
X118895714Y-80842380D02*
X118324285Y-80842380D01*
X118610000Y-80842380D02*
X118610000Y-79842380D01*
X118514761Y-79985238D01*
X118419523Y-80080476D01*
X118324285Y-80128095D01*
%TO.C,D2*%
X117616904Y-85922380D02*
X117616904Y-84922380D01*
X117855000Y-84922380D01*
X117997857Y-84970000D01*
X118093095Y-85065238D01*
X118140714Y-85160476D01*
X118188333Y-85350952D01*
X118188333Y-85493809D01*
X118140714Y-85684285D01*
X118093095Y-85779523D01*
X117997857Y-85874761D01*
X117855000Y-85922380D01*
X117616904Y-85922380D01*
X118569285Y-85017619D02*
X118616904Y-84970000D01*
X118712142Y-84922380D01*
X118950238Y-84922380D01*
X119045476Y-84970000D01*
X119093095Y-85017619D01*
X119140714Y-85112857D01*
X119140714Y-85208095D01*
X119093095Y-85350952D01*
X118521666Y-85922380D01*
X119140714Y-85922380D01*
%TO.C,D3*%
X117371904Y-91002380D02*
X117371904Y-90002380D01*
X117610000Y-90002380D01*
X117752857Y-90050000D01*
X117848095Y-90145238D01*
X117895714Y-90240476D01*
X117943333Y-90430952D01*
X117943333Y-90573809D01*
X117895714Y-90764285D01*
X117848095Y-90859523D01*
X117752857Y-90954761D01*
X117610000Y-91002380D01*
X117371904Y-91002380D01*
X118276666Y-90002380D02*
X118895714Y-90002380D01*
X118562380Y-90383333D01*
X118705238Y-90383333D01*
X118800476Y-90430952D01*
X118848095Y-90478571D01*
X118895714Y-90573809D01*
X118895714Y-90811904D01*
X118848095Y-90907142D01*
X118800476Y-90954761D01*
X118705238Y-91002380D01*
X118419523Y-91002380D01*
X118324285Y-90954761D01*
X118276666Y-90907142D01*
%TO.C,D4*%
X117371904Y-96082380D02*
X117371904Y-95082380D01*
X117610000Y-95082380D01*
X117752857Y-95130000D01*
X117848095Y-95225238D01*
X117895714Y-95320476D01*
X117943333Y-95510952D01*
X117943333Y-95653809D01*
X117895714Y-95844285D01*
X117848095Y-95939523D01*
X117752857Y-96034761D01*
X117610000Y-96082380D01*
X117371904Y-96082380D01*
X118800476Y-95415714D02*
X118800476Y-96082380D01*
X118562380Y-95034761D02*
X118324285Y-95749047D01*
X118943333Y-95749047D01*
%TO.C,D5*%
X92606904Y-84032380D02*
X92606904Y-83032380D01*
X92845000Y-83032380D01*
X92987857Y-83080000D01*
X93083095Y-83175238D01*
X93130714Y-83270476D01*
X93178333Y-83460952D01*
X93178333Y-83603809D01*
X93130714Y-83794285D01*
X93083095Y-83889523D01*
X92987857Y-83984761D01*
X92845000Y-84032380D01*
X92606904Y-84032380D01*
X94083095Y-83032380D02*
X93606904Y-83032380D01*
X93559285Y-83508571D01*
X93606904Y-83460952D01*
X93702142Y-83413333D01*
X93940238Y-83413333D01*
X94035476Y-83460952D01*
X94083095Y-83508571D01*
X94130714Y-83603809D01*
X94130714Y-83841904D01*
X94083095Y-83937142D01*
X94035476Y-83984761D01*
X93940238Y-84032380D01*
X93702142Y-84032380D01*
X93606904Y-83984761D01*
X93559285Y-83937142D01*
%TO.C,J1*%
X108886666Y-75127379D02*
X108886666Y-75841665D01*
X108839047Y-75984522D01*
X108743809Y-76079760D01*
X108600952Y-76127379D01*
X108505714Y-76127379D01*
X109886666Y-76127379D02*
X109315238Y-76127379D01*
X109600952Y-76127379D02*
X109600952Y-75127379D01*
X109505714Y-75270237D01*
X109410476Y-75365475D01*
X109315238Y-75413094D01*
%TO.C,R1*%
X121753333Y-78142380D02*
X121420000Y-77666190D01*
X121181904Y-78142380D02*
X121181904Y-77142380D01*
X121562857Y-77142380D01*
X121658095Y-77190000D01*
X121705714Y-77237619D01*
X121753333Y-77332857D01*
X121753333Y-77475714D01*
X121705714Y-77570952D01*
X121658095Y-77618571D01*
X121562857Y-77666190D01*
X121181904Y-77666190D01*
X122705714Y-78142380D02*
X122134285Y-78142380D01*
X122420000Y-78142380D02*
X122420000Y-77142380D01*
X122324761Y-77285238D01*
X122229523Y-77380476D01*
X122134285Y-77428095D01*
%TO.C,R2*%
X121753333Y-83222380D02*
X121420000Y-82746190D01*
X121181904Y-83222380D02*
X121181904Y-82222380D01*
X121562857Y-82222380D01*
X121658095Y-82270000D01*
X121705714Y-82317619D01*
X121753333Y-82412857D01*
X121753333Y-82555714D01*
X121705714Y-82650952D01*
X121658095Y-82698571D01*
X121562857Y-82746190D01*
X121181904Y-82746190D01*
X122134285Y-82317619D02*
X122181904Y-82270000D01*
X122277142Y-82222380D01*
X122515238Y-82222380D01*
X122610476Y-82270000D01*
X122658095Y-82317619D01*
X122705714Y-82412857D01*
X122705714Y-82508095D01*
X122658095Y-82650952D01*
X122086666Y-83222380D01*
X122705714Y-83222380D01*
%TO.C,R3*%
X121753333Y-88302380D02*
X121420000Y-87826190D01*
X121181904Y-88302380D02*
X121181904Y-87302380D01*
X121562857Y-87302380D01*
X121658095Y-87350000D01*
X121705714Y-87397619D01*
X121753333Y-87492857D01*
X121753333Y-87635714D01*
X121705714Y-87730952D01*
X121658095Y-87778571D01*
X121562857Y-87826190D01*
X121181904Y-87826190D01*
X122086666Y-87302380D02*
X122705714Y-87302380D01*
X122372380Y-87683333D01*
X122515238Y-87683333D01*
X122610476Y-87730952D01*
X122658095Y-87778571D01*
X122705714Y-87873809D01*
X122705714Y-88111904D01*
X122658095Y-88207142D01*
X122610476Y-88254761D01*
X122515238Y-88302380D01*
X122229523Y-88302380D01*
X122134285Y-88254761D01*
X122086666Y-88207142D01*
%TO.C,R4*%
X121753333Y-93382380D02*
X121420000Y-92906190D01*
X121181904Y-93382380D02*
X121181904Y-92382380D01*
X121562857Y-92382380D01*
X121658095Y-92430000D01*
X121705714Y-92477619D01*
X121753333Y-92572857D01*
X121753333Y-92715714D01*
X121705714Y-92810952D01*
X121658095Y-92858571D01*
X121562857Y-92906190D01*
X121181904Y-92906190D01*
X122610476Y-92715714D02*
X122610476Y-93382380D01*
X122372380Y-92334761D02*
X122134285Y-93049047D01*
X122753333Y-93049047D01*
%TO.C,R5*%
X100163333Y-77507380D02*
X99830000Y-77031190D01*
X99591904Y-77507380D02*
X99591904Y-76507380D01*
X99972857Y-76507380D01*
X100068095Y-76555000D01*
X100115714Y-76602619D01*
X100163333Y-76697857D01*
X100163333Y-76840714D01*
X100115714Y-76935952D01*
X100068095Y-76983571D01*
X99972857Y-77031190D01*
X99591904Y-77031190D01*
X101068095Y-76507380D02*
X100591904Y-76507380D01*
X100544285Y-76983571D01*
X100591904Y-76935952D01*
X100687142Y-76888333D01*
X100925238Y-76888333D01*
X101020476Y-76935952D01*
X101068095Y-76983571D01*
X101115714Y-77078809D01*
X101115714Y-77316904D01*
X101068095Y-77412142D01*
X101020476Y-77459761D01*
X100925238Y-77507380D01*
X100687142Y-77507380D01*
X100591904Y-77459761D01*
X100544285Y-77412142D01*
%TO.C,R6*%
X100163333Y-81317380D02*
X99830000Y-80841190D01*
X99591904Y-81317380D02*
X99591904Y-80317380D01*
X99972857Y-80317380D01*
X100068095Y-80365000D01*
X100115714Y-80412619D01*
X100163333Y-80507857D01*
X100163333Y-80650714D01*
X100115714Y-80745952D01*
X100068095Y-80793571D01*
X99972857Y-80841190D01*
X99591904Y-80841190D01*
X101020476Y-80317380D02*
X100830000Y-80317380D01*
X100734761Y-80365000D01*
X100687142Y-80412619D01*
X100591904Y-80555476D01*
X100544285Y-80745952D01*
X100544285Y-81126904D01*
X100591904Y-81222142D01*
X100639523Y-81269761D01*
X100734761Y-81317380D01*
X100925238Y-81317380D01*
X101020476Y-81269761D01*
X101068095Y-81222142D01*
X101115714Y-81126904D01*
X101115714Y-80888809D01*
X101068095Y-80793571D01*
X101020476Y-80745952D01*
X100925238Y-80698333D01*
X100734761Y-80698333D01*
X100639523Y-80745952D01*
X100591904Y-80793571D01*
X100544285Y-80888809D01*
%TO.C,R7*%
X100163333Y-85127380D02*
X99830000Y-84651190D01*
X99591904Y-85127380D02*
X99591904Y-84127380D01*
X99972857Y-84127380D01*
X100068095Y-84175000D01*
X100115714Y-84222619D01*
X100163333Y-84317857D01*
X100163333Y-84460714D01*
X100115714Y-84555952D01*
X100068095Y-84603571D01*
X99972857Y-84651190D01*
X99591904Y-84651190D01*
X100496666Y-84127380D02*
X101163333Y-84127380D01*
X100734761Y-85127380D01*
%TO.C,R8*%
X98258333Y-104812380D02*
X97925000Y-104336190D01*
X97686904Y-104812380D02*
X97686904Y-103812380D01*
X98067857Y-103812380D01*
X98163095Y-103860000D01*
X98210714Y-103907619D01*
X98258333Y-104002857D01*
X98258333Y-104145714D01*
X98210714Y-104240952D01*
X98163095Y-104288571D01*
X98067857Y-104336190D01*
X97686904Y-104336190D01*
X98829761Y-104240952D02*
X98734523Y-104193333D01*
X98686904Y-104145714D01*
X98639285Y-104050476D01*
X98639285Y-104002857D01*
X98686904Y-103907619D01*
X98734523Y-103860000D01*
X98829761Y-103812380D01*
X99020238Y-103812380D01*
X99115476Y-103860000D01*
X99163095Y-103907619D01*
X99210714Y-104002857D01*
X99210714Y-104050476D01*
X99163095Y-104145714D01*
X99115476Y-104193333D01*
X99020238Y-104240952D01*
X98829761Y-104240952D01*
X98734523Y-104288571D01*
X98686904Y-104336190D01*
X98639285Y-104431428D01*
X98639285Y-104621904D01*
X98686904Y-104717142D01*
X98734523Y-104764761D01*
X98829761Y-104812380D01*
X99020238Y-104812380D01*
X99115476Y-104764761D01*
X99163095Y-104717142D01*
X99210714Y-104621904D01*
X99210714Y-104431428D01*
X99163095Y-104336190D01*
X99115476Y-104288571D01*
X99020238Y-104240952D01*
%TO.C,R9*%
X98258333Y-107987380D02*
X97925000Y-107511190D01*
X97686904Y-107987380D02*
X97686904Y-106987380D01*
X98067857Y-106987380D01*
X98163095Y-107035000D01*
X98210714Y-107082619D01*
X98258333Y-107177857D01*
X98258333Y-107320714D01*
X98210714Y-107415952D01*
X98163095Y-107463571D01*
X98067857Y-107511190D01*
X97686904Y-107511190D01*
X98734523Y-107987380D02*
X98925000Y-107987380D01*
X99020238Y-107939761D01*
X99067857Y-107892142D01*
X99163095Y-107749285D01*
X99210714Y-107558809D01*
X99210714Y-107177857D01*
X99163095Y-107082619D01*
X99115476Y-107035000D01*
X99020238Y-106987380D01*
X98829761Y-106987380D01*
X98734523Y-107035000D01*
X98686904Y-107082619D01*
X98639285Y-107177857D01*
X98639285Y-107415952D01*
X98686904Y-107511190D01*
X98734523Y-107558809D01*
X98829761Y-107606428D01*
X99020238Y-107606428D01*
X99115476Y-107558809D01*
X99163095Y-107511190D01*
X99210714Y-107415952D01*
%TO.C,R10*%
X97782142Y-111162380D02*
X97448809Y-110686190D01*
X97210714Y-111162380D02*
X97210714Y-110162380D01*
X97591666Y-110162380D01*
X97686904Y-110210000D01*
X97734523Y-110257619D01*
X97782142Y-110352857D01*
X97782142Y-110495714D01*
X97734523Y-110590952D01*
X97686904Y-110638571D01*
X97591666Y-110686190D01*
X97210714Y-110686190D01*
X98734523Y-111162380D02*
X98163095Y-111162380D01*
X98448809Y-111162380D02*
X98448809Y-110162380D01*
X98353571Y-110305238D01*
X98258333Y-110400476D01*
X98163095Y-110448095D01*
X99353571Y-110162380D02*
X99448809Y-110162380D01*
X99544047Y-110210000D01*
X99591666Y-110257619D01*
X99639285Y-110352857D01*
X99686904Y-110543333D01*
X99686904Y-110781428D01*
X99639285Y-110971904D01*
X99591666Y-111067142D01*
X99544047Y-111114761D01*
X99448809Y-111162380D01*
X99353571Y-111162380D01*
X99258333Y-111114761D01*
X99210714Y-111067142D01*
X99163095Y-110971904D01*
X99115476Y-110781428D01*
X99115476Y-110543333D01*
X99163095Y-110352857D01*
X99210714Y-110257619D01*
X99258333Y-110210000D01*
X99353571Y-110162380D01*
%TO.C,R11*%
X97782142Y-114337380D02*
X97448809Y-113861190D01*
X97210714Y-114337380D02*
X97210714Y-113337380D01*
X97591666Y-113337380D01*
X97686904Y-113385000D01*
X97734523Y-113432619D01*
X97782142Y-113527857D01*
X97782142Y-113670714D01*
X97734523Y-113765952D01*
X97686904Y-113813571D01*
X97591666Y-113861190D01*
X97210714Y-113861190D01*
X98734523Y-114337380D02*
X98163095Y-114337380D01*
X98448809Y-114337380D02*
X98448809Y-113337380D01*
X98353571Y-113480238D01*
X98258333Y-113575476D01*
X98163095Y-113623095D01*
X99686904Y-114337380D02*
X99115476Y-114337380D01*
X99401190Y-114337380D02*
X99401190Y-113337380D01*
X99305952Y-113480238D01*
X99210714Y-113575476D01*
X99115476Y-113623095D01*
%TO.C,R12*%
X98009642Y-117512380D02*
X97676309Y-117036190D01*
X97438214Y-117512380D02*
X97438214Y-116512380D01*
X97819166Y-116512380D01*
X97914404Y-116560000D01*
X97962023Y-116607619D01*
X98009642Y-116702857D01*
X98009642Y-116845714D01*
X97962023Y-116940952D01*
X97914404Y-116988571D01*
X97819166Y-117036190D01*
X97438214Y-117036190D01*
X98962023Y-117512380D02*
X98390595Y-117512380D01*
X98676309Y-117512380D02*
X98676309Y-116512380D01*
X98581071Y-116655238D01*
X98485833Y-116750476D01*
X98390595Y-116798095D01*
X99342976Y-116607619D02*
X99390595Y-116560000D01*
X99485833Y-116512380D01*
X99723928Y-116512380D01*
X99819166Y-116560000D01*
X99866785Y-116607619D01*
X99914404Y-116702857D01*
X99914404Y-116798095D01*
X99866785Y-116940952D01*
X99295357Y-117512380D01*
X99914404Y-117512380D01*
%TO.C,R13*%
X97782142Y-120687380D02*
X97448809Y-120211190D01*
X97210714Y-120687380D02*
X97210714Y-119687380D01*
X97591666Y-119687380D01*
X97686904Y-119735000D01*
X97734523Y-119782619D01*
X97782142Y-119877857D01*
X97782142Y-120020714D01*
X97734523Y-120115952D01*
X97686904Y-120163571D01*
X97591666Y-120211190D01*
X97210714Y-120211190D01*
X98734523Y-120687380D02*
X98163095Y-120687380D01*
X98448809Y-120687380D02*
X98448809Y-119687380D01*
X98353571Y-119830238D01*
X98258333Y-119925476D01*
X98163095Y-119973095D01*
X99067857Y-119687380D02*
X99686904Y-119687380D01*
X99353571Y-120068333D01*
X99496428Y-120068333D01*
X99591666Y-120115952D01*
X99639285Y-120163571D01*
X99686904Y-120258809D01*
X99686904Y-120496904D01*
X99639285Y-120592142D01*
X99591666Y-120639761D01*
X99496428Y-120687380D01*
X99210714Y-120687380D01*
X99115476Y-120639761D01*
X99067857Y-120592142D01*
%TO.C,R14*%
X97782142Y-123862380D02*
X97448809Y-123386190D01*
X97210714Y-123862380D02*
X97210714Y-122862380D01*
X97591666Y-122862380D01*
X97686904Y-122910000D01*
X97734523Y-122957619D01*
X97782142Y-123052857D01*
X97782142Y-123195714D01*
X97734523Y-123290952D01*
X97686904Y-123338571D01*
X97591666Y-123386190D01*
X97210714Y-123386190D01*
X98734523Y-123862380D02*
X98163095Y-123862380D01*
X98448809Y-123862380D02*
X98448809Y-122862380D01*
X98353571Y-123005238D01*
X98258333Y-123100476D01*
X98163095Y-123148095D01*
X99591666Y-123195714D02*
X99591666Y-123862380D01*
X99353571Y-122814761D02*
X99115476Y-123529047D01*
X99734523Y-123529047D01*
%TO.C,R15*%
X97782142Y-127037380D02*
X97448809Y-126561190D01*
X97210714Y-127037380D02*
X97210714Y-126037380D01*
X97591666Y-126037380D01*
X97686904Y-126085000D01*
X97734523Y-126132619D01*
X97782142Y-126227857D01*
X97782142Y-126370714D01*
X97734523Y-126465952D01*
X97686904Y-126513571D01*
X97591666Y-126561190D01*
X97210714Y-126561190D01*
X98734523Y-127037380D02*
X98163095Y-127037380D01*
X98448809Y-127037380D02*
X98448809Y-126037380D01*
X98353571Y-126180238D01*
X98258333Y-126275476D01*
X98163095Y-126323095D01*
X99639285Y-126037380D02*
X99163095Y-126037380D01*
X99115476Y-126513571D01*
X99163095Y-126465952D01*
X99258333Y-126418333D01*
X99496428Y-126418333D01*
X99591666Y-126465952D01*
X99639285Y-126513571D01*
X99686904Y-126608809D01*
X99686904Y-126846904D01*
X99639285Y-126942142D01*
X99591666Y-126989761D01*
X99496428Y-127037380D01*
X99258333Y-127037380D01*
X99163095Y-126989761D01*
X99115476Y-126942142D01*
%TO.C,R16*%
X121277142Y-106277380D02*
X120943809Y-105801190D01*
X120705714Y-106277380D02*
X120705714Y-105277380D01*
X121086666Y-105277380D01*
X121181904Y-105325000D01*
X121229523Y-105372619D01*
X121277142Y-105467857D01*
X121277142Y-105610714D01*
X121229523Y-105705952D01*
X121181904Y-105753571D01*
X121086666Y-105801190D01*
X120705714Y-105801190D01*
X122229523Y-106277380D02*
X121658095Y-106277380D01*
X121943809Y-106277380D02*
X121943809Y-105277380D01*
X121848571Y-105420238D01*
X121753333Y-105515476D01*
X121658095Y-105563095D01*
X123086666Y-105277380D02*
X122896190Y-105277380D01*
X122800952Y-105325000D01*
X122753333Y-105372619D01*
X122658095Y-105515476D01*
X122610476Y-105705952D01*
X122610476Y-106086904D01*
X122658095Y-106182142D01*
X122705714Y-106229761D01*
X122800952Y-106277380D01*
X122991428Y-106277380D01*
X123086666Y-106229761D01*
X123134285Y-106182142D01*
X123181904Y-106086904D01*
X123181904Y-105848809D01*
X123134285Y-105753571D01*
X123086666Y-105705952D01*
X122991428Y-105658333D01*
X122800952Y-105658333D01*
X122705714Y-105705952D01*
X122658095Y-105753571D01*
X122610476Y-105848809D01*
%TO.C,R17*%
X121277142Y-113262380D02*
X120943809Y-112786190D01*
X120705714Y-113262380D02*
X120705714Y-112262380D01*
X121086666Y-112262380D01*
X121181904Y-112310000D01*
X121229523Y-112357619D01*
X121277142Y-112452857D01*
X121277142Y-112595714D01*
X121229523Y-112690952D01*
X121181904Y-112738571D01*
X121086666Y-112786190D01*
X120705714Y-112786190D01*
X122229523Y-113262380D02*
X121658095Y-113262380D01*
X121943809Y-113262380D02*
X121943809Y-112262380D01*
X121848571Y-112405238D01*
X121753333Y-112500476D01*
X121658095Y-112548095D01*
X122562857Y-112262380D02*
X123229523Y-112262380D01*
X122800952Y-113262380D01*
%TO.C,R18*%
X121277142Y-120247380D02*
X120943809Y-119771190D01*
X120705714Y-120247380D02*
X120705714Y-119247380D01*
X121086666Y-119247380D01*
X121181904Y-119295000D01*
X121229523Y-119342619D01*
X121277142Y-119437857D01*
X121277142Y-119580714D01*
X121229523Y-119675952D01*
X121181904Y-119723571D01*
X121086666Y-119771190D01*
X120705714Y-119771190D01*
X122229523Y-120247380D02*
X121658095Y-120247380D01*
X121943809Y-120247380D02*
X121943809Y-119247380D01*
X121848571Y-119390238D01*
X121753333Y-119485476D01*
X121658095Y-119533095D01*
X122800952Y-119675952D02*
X122705714Y-119628333D01*
X122658095Y-119580714D01*
X122610476Y-119485476D01*
X122610476Y-119437857D01*
X122658095Y-119342619D01*
X122705714Y-119295000D01*
X122800952Y-119247380D01*
X122991428Y-119247380D01*
X123086666Y-119295000D01*
X123134285Y-119342619D01*
X123181904Y-119437857D01*
X123181904Y-119485476D01*
X123134285Y-119580714D01*
X123086666Y-119628333D01*
X122991428Y-119675952D01*
X122800952Y-119675952D01*
X122705714Y-119723571D01*
X122658095Y-119771190D01*
X122610476Y-119866428D01*
X122610476Y-120056904D01*
X122658095Y-120152142D01*
X122705714Y-120199761D01*
X122800952Y-120247380D01*
X122991428Y-120247380D01*
X123086666Y-120199761D01*
X123134285Y-120152142D01*
X123181904Y-120056904D01*
X123181904Y-119866428D01*
X123134285Y-119771190D01*
X123086666Y-119723571D01*
X122991428Y-119675952D01*
%TO.C,R19*%
X121277142Y-127232380D02*
X120943809Y-126756190D01*
X120705714Y-127232380D02*
X120705714Y-126232380D01*
X121086666Y-126232380D01*
X121181904Y-126280000D01*
X121229523Y-126327619D01*
X121277142Y-126422857D01*
X121277142Y-126565714D01*
X121229523Y-126660952D01*
X121181904Y-126708571D01*
X121086666Y-126756190D01*
X120705714Y-126756190D01*
X122229523Y-127232380D02*
X121658095Y-127232380D01*
X121943809Y-127232380D02*
X121943809Y-126232380D01*
X121848571Y-126375238D01*
X121753333Y-126470476D01*
X121658095Y-126518095D01*
X122705714Y-127232380D02*
X122896190Y-127232380D01*
X122991428Y-127184761D01*
X123039047Y-127137142D01*
X123134285Y-126994285D01*
X123181904Y-126803809D01*
X123181904Y-126422857D01*
X123134285Y-126327619D01*
X123086666Y-126280000D01*
X122991428Y-126232380D01*
X122800952Y-126232380D01*
X122705714Y-126280000D01*
X122658095Y-126327619D01*
X122610476Y-126422857D01*
X122610476Y-126660952D01*
X122658095Y-126756190D01*
X122705714Y-126803809D01*
X122800952Y-126851428D01*
X122991428Y-126851428D01*
X123086666Y-126803809D01*
X123134285Y-126756190D01*
X123181904Y-126660952D01*
%TO.C,SW1*%
X134899762Y-106078334D02*
X134947381Y-105935477D01*
X134947381Y-105697381D01*
X134899762Y-105602143D01*
X134852143Y-105554524D01*
X134756905Y-105506905D01*
X134661667Y-105506905D01*
X134566429Y-105554524D01*
X134518810Y-105602143D01*
X134471191Y-105697381D01*
X134423572Y-105887858D01*
X134375953Y-105983096D01*
X134328334Y-106030715D01*
X134233096Y-106078334D01*
X134137858Y-106078334D01*
X134042620Y-106030715D01*
X133995001Y-105983096D01*
X133947381Y-105887858D01*
X133947381Y-105649762D01*
X133995001Y-105506905D01*
X133947381Y-105173572D02*
X134947381Y-104935477D01*
X134233096Y-104745001D01*
X134947381Y-104554524D01*
X133947381Y-104316429D01*
X134947381Y-103411667D02*
X134947381Y-103983096D01*
X134947381Y-103697381D02*
X133947381Y-103697381D01*
X134090239Y-103792620D01*
X134185477Y-103887858D01*
X134233096Y-103983096D01*
%TO.C,SW2*%
X135084761Y-113093333D02*
X135132380Y-112950476D01*
X135132380Y-112712380D01*
X135084761Y-112617142D01*
X135037142Y-112569523D01*
X134941904Y-112521904D01*
X134846666Y-112521904D01*
X134751428Y-112569523D01*
X134703809Y-112617142D01*
X134656190Y-112712380D01*
X134608571Y-112902857D01*
X134560952Y-112998095D01*
X134513333Y-113045714D01*
X134418095Y-113093333D01*
X134322857Y-113093333D01*
X134227619Y-113045714D01*
X134180000Y-112998095D01*
X134132380Y-112902857D01*
X134132380Y-112664761D01*
X134180000Y-112521904D01*
X134132380Y-112188571D02*
X135132380Y-111950476D01*
X134418095Y-111760000D01*
X135132380Y-111569523D01*
X134132380Y-111331428D01*
X134227619Y-110998095D02*
X134180000Y-110950476D01*
X134132380Y-110855238D01*
X134132380Y-110617142D01*
X134180000Y-110521904D01*
X134227619Y-110474285D01*
X134322857Y-110426666D01*
X134418095Y-110426666D01*
X134560952Y-110474285D01*
X135132380Y-111045714D01*
X135132380Y-110426666D01*
%TO.C,SW3*%
X135084761Y-120078333D02*
X135132380Y-119935476D01*
X135132380Y-119697380D01*
X135084761Y-119602142D01*
X135037142Y-119554523D01*
X134941904Y-119506904D01*
X134846666Y-119506904D01*
X134751428Y-119554523D01*
X134703809Y-119602142D01*
X134656190Y-119697380D01*
X134608571Y-119887857D01*
X134560952Y-119983095D01*
X134513333Y-120030714D01*
X134418095Y-120078333D01*
X134322857Y-120078333D01*
X134227619Y-120030714D01*
X134180000Y-119983095D01*
X134132380Y-119887857D01*
X134132380Y-119649761D01*
X134180000Y-119506904D01*
X134132380Y-119173571D02*
X135132380Y-118935476D01*
X134418095Y-118745000D01*
X135132380Y-118554523D01*
X134132380Y-118316428D01*
X134132380Y-118030714D02*
X134132380Y-117411666D01*
X134513333Y-117745000D01*
X134513333Y-117602142D01*
X134560952Y-117506904D01*
X134608571Y-117459285D01*
X134703809Y-117411666D01*
X134941904Y-117411666D01*
X135037142Y-117459285D01*
X135084761Y-117506904D01*
X135132380Y-117602142D01*
X135132380Y-117887857D01*
X135084761Y-117983095D01*
X135037142Y-118030714D01*
%TO.C,SW4*%
X135084761Y-127063333D02*
X135132380Y-126920476D01*
X135132380Y-126682380D01*
X135084761Y-126587142D01*
X135037142Y-126539523D01*
X134941904Y-126491904D01*
X134846666Y-126491904D01*
X134751428Y-126539523D01*
X134703809Y-126587142D01*
X134656190Y-126682380D01*
X134608571Y-126872857D01*
X134560952Y-126968095D01*
X134513333Y-127015714D01*
X134418095Y-127063333D01*
X134322857Y-127063333D01*
X134227619Y-127015714D01*
X134180000Y-126968095D01*
X134132380Y-126872857D01*
X134132380Y-126634761D01*
X134180000Y-126491904D01*
X134132380Y-126158571D02*
X135132380Y-125920476D01*
X134418095Y-125730000D01*
X135132380Y-125539523D01*
X134132380Y-125301428D01*
X134465714Y-124491904D02*
X135132380Y-124491904D01*
X134084761Y-124730000D02*
X134799047Y-124968095D01*
X134799047Y-124349047D01*
%TO.C,U1*%
X87448095Y-119582380D02*
X87448095Y-120391904D01*
X87495714Y-120487142D01*
X87543333Y-120534761D01*
X87638571Y-120582380D01*
X87829047Y-120582380D01*
X87924285Y-120534761D01*
X87971904Y-120487142D01*
X88019523Y-120391904D01*
X88019523Y-119582380D01*
X89019523Y-120582380D02*
X88448095Y-120582380D01*
X88733809Y-120582380D02*
X88733809Y-119582380D01*
X88638571Y-119725238D01*
X88543333Y-119820476D01*
X88448095Y-119868095D01*
%TD*%
M02*
