%TF.GenerationSoftware,KiCad,Pcbnew,(5.1.9)-1*%
%TF.CreationDate,2021-01-13T23:08:58-08:00*%
%TF.ProjectId,lab-1,6c61622d-312e-46b6-9963-61645f706362,rev?*%
%TF.SameCoordinates,Original*%
%TF.FileFunction,Soldermask,Top*%
%TF.FilePolarity,Negative*%
%FSLAX46Y46*%
G04 Gerber Fmt 4.6, Leading zero omitted, Abs format (unit mm)*
G04 Created by KiCad (PCBNEW (5.1.9)-1) date 2021-01-13 23:08:58*
%MOMM*%
%LPD*%
G01*
G04 APERTURE LIST*
%ADD10R,1.500000X1.000000*%
%ADD11R,3.000000X1.000000*%
%ADD12R,0.650000X1.050000*%
%ADD13R,2.800000X0.900000*%
G04 APERTURE END LIST*
%TO.C,D1*%
G36*
G01*
X117660000Y-78289999D02*
X117660000Y-79190001D01*
G75*
G02*
X117410001Y-79440000I-249999J0D01*
G01*
X116759999Y-79440000D01*
G75*
G02*
X116510000Y-79190001I0J249999D01*
G01*
X116510000Y-78289999D01*
G75*
G02*
X116759999Y-78040000I249999J0D01*
G01*
X117410001Y-78040000D01*
G75*
G02*
X117660000Y-78289999I0J-249999D01*
G01*
G37*
G36*
G01*
X119710000Y-78289999D02*
X119710000Y-79190001D01*
G75*
G02*
X119460001Y-79440000I-249999J0D01*
G01*
X118809999Y-79440000D01*
G75*
G02*
X118560000Y-79190001I0J249999D01*
G01*
X118560000Y-78289999D01*
G75*
G02*
X118809999Y-78040000I249999J0D01*
G01*
X119460001Y-78040000D01*
G75*
G02*
X119710000Y-78289999I0J-249999D01*
G01*
G37*
%TD*%
%TO.C,D2*%
G36*
G01*
X119955000Y-83369999D02*
X119955000Y-84270001D01*
G75*
G02*
X119705001Y-84520000I-249999J0D01*
G01*
X119054999Y-84520000D01*
G75*
G02*
X118805000Y-84270001I0J249999D01*
G01*
X118805000Y-83369999D01*
G75*
G02*
X119054999Y-83120000I249999J0D01*
G01*
X119705001Y-83120000D01*
G75*
G02*
X119955000Y-83369999I0J-249999D01*
G01*
G37*
G36*
G01*
X117905000Y-83369999D02*
X117905000Y-84270001D01*
G75*
G02*
X117655001Y-84520000I-249999J0D01*
G01*
X117004999Y-84520000D01*
G75*
G02*
X116755000Y-84270001I0J249999D01*
G01*
X116755000Y-83369999D01*
G75*
G02*
X117004999Y-83120000I249999J0D01*
G01*
X117655001Y-83120000D01*
G75*
G02*
X117905000Y-83369999I0J-249999D01*
G01*
G37*
%TD*%
%TO.C,D3*%
G36*
G01*
X117660000Y-88449999D02*
X117660000Y-89350001D01*
G75*
G02*
X117410001Y-89600000I-249999J0D01*
G01*
X116759999Y-89600000D01*
G75*
G02*
X116510000Y-89350001I0J249999D01*
G01*
X116510000Y-88449999D01*
G75*
G02*
X116759999Y-88200000I249999J0D01*
G01*
X117410001Y-88200000D01*
G75*
G02*
X117660000Y-88449999I0J-249999D01*
G01*
G37*
G36*
G01*
X119710000Y-88449999D02*
X119710000Y-89350001D01*
G75*
G02*
X119460001Y-89600000I-249999J0D01*
G01*
X118809999Y-89600000D01*
G75*
G02*
X118560000Y-89350001I0J249999D01*
G01*
X118560000Y-88449999D01*
G75*
G02*
X118809999Y-88200000I249999J0D01*
G01*
X119460001Y-88200000D01*
G75*
G02*
X119710000Y-88449999I0J-249999D01*
G01*
G37*
%TD*%
%TO.C,D4*%
G36*
G01*
X119710000Y-93529999D02*
X119710000Y-94430001D01*
G75*
G02*
X119460001Y-94680000I-249999J0D01*
G01*
X118809999Y-94680000D01*
G75*
G02*
X118560000Y-94430001I0J249999D01*
G01*
X118560000Y-93529999D01*
G75*
G02*
X118809999Y-93280000I249999J0D01*
G01*
X119460001Y-93280000D01*
G75*
G02*
X119710000Y-93529999I0J-249999D01*
G01*
G37*
G36*
G01*
X117660000Y-93529999D02*
X117660000Y-94430001D01*
G75*
G02*
X117410001Y-94680000I-249999J0D01*
G01*
X116759999Y-94680000D01*
G75*
G02*
X116510000Y-94430001I0J249999D01*
G01*
X116510000Y-93529999D01*
G75*
G02*
X116759999Y-93280000I249999J0D01*
G01*
X117410001Y-93280000D01*
G75*
G02*
X117660000Y-93529999I0J-249999D01*
G01*
G37*
%TD*%
D10*
%TO.C,D5*%
X95095000Y-81980000D03*
X95095000Y-80580000D03*
X91595000Y-81980000D03*
X91595000Y-80580000D03*
%TD*%
D11*
%TO.C,J1*%
X111740000Y-78740000D03*
X106700000Y-78740000D03*
X111740000Y-81280000D03*
X106700000Y-81280000D03*
X111740000Y-83820000D03*
X106700000Y-83820000D03*
X111740000Y-86360000D03*
X106700000Y-86360000D03*
X111740000Y-88900000D03*
X106700000Y-88900000D03*
X111740000Y-91440000D03*
X106700000Y-91440000D03*
X111740000Y-93980000D03*
X106700000Y-93980000D03*
X111740000Y-96520000D03*
X106700000Y-96520000D03*
X111740000Y-99060000D03*
X106700000Y-99060000D03*
X111740000Y-101600000D03*
X106700000Y-101600000D03*
X111740000Y-104140000D03*
X106700000Y-104140000D03*
X111740000Y-106680000D03*
X106700000Y-106680000D03*
X111740000Y-109220000D03*
X106700000Y-109220000D03*
X111740000Y-111760000D03*
X106700000Y-111760000D03*
X111740000Y-114300000D03*
X106700000Y-114300000D03*
X111740000Y-116840000D03*
X106700000Y-116840000D03*
X111740000Y-119380000D03*
X106700000Y-119380000D03*
X111740000Y-121920000D03*
X106700000Y-121920000D03*
X111740000Y-124460000D03*
X106700000Y-124460000D03*
X111740000Y-127000000D03*
X106700000Y-127000000D03*
%TD*%
%TO.C,R1*%
G36*
G01*
X121195000Y-78840000D02*
X121195000Y-78640000D01*
G75*
G02*
X121295000Y-78540000I100000J0D01*
G01*
X121730000Y-78540000D01*
G75*
G02*
X121830000Y-78640000I0J-100000D01*
G01*
X121830000Y-78840000D01*
G75*
G02*
X121730000Y-78940000I-100000J0D01*
G01*
X121295000Y-78940000D01*
G75*
G02*
X121195000Y-78840000I0J100000D01*
G01*
G37*
G36*
G01*
X122010000Y-78840000D02*
X122010000Y-78640000D01*
G75*
G02*
X122110000Y-78540000I100000J0D01*
G01*
X122545000Y-78540000D01*
G75*
G02*
X122645000Y-78640000I0J-100000D01*
G01*
X122645000Y-78840000D01*
G75*
G02*
X122545000Y-78940000I-100000J0D01*
G01*
X122110000Y-78940000D01*
G75*
G02*
X122010000Y-78840000I0J100000D01*
G01*
G37*
%TD*%
%TO.C,R2*%
G36*
G01*
X122010000Y-83920000D02*
X122010000Y-83720000D01*
G75*
G02*
X122110000Y-83620000I100000J0D01*
G01*
X122545000Y-83620000D01*
G75*
G02*
X122645000Y-83720000I0J-100000D01*
G01*
X122645000Y-83920000D01*
G75*
G02*
X122545000Y-84020000I-100000J0D01*
G01*
X122110000Y-84020000D01*
G75*
G02*
X122010000Y-83920000I0J100000D01*
G01*
G37*
G36*
G01*
X121195000Y-83920000D02*
X121195000Y-83720000D01*
G75*
G02*
X121295000Y-83620000I100000J0D01*
G01*
X121730000Y-83620000D01*
G75*
G02*
X121830000Y-83720000I0J-100000D01*
G01*
X121830000Y-83920000D01*
G75*
G02*
X121730000Y-84020000I-100000J0D01*
G01*
X121295000Y-84020000D01*
G75*
G02*
X121195000Y-83920000I0J100000D01*
G01*
G37*
%TD*%
%TO.C,R3*%
G36*
G01*
X121195000Y-89000000D02*
X121195000Y-88800000D01*
G75*
G02*
X121295000Y-88700000I100000J0D01*
G01*
X121730000Y-88700000D01*
G75*
G02*
X121830000Y-88800000I0J-100000D01*
G01*
X121830000Y-89000000D01*
G75*
G02*
X121730000Y-89100000I-100000J0D01*
G01*
X121295000Y-89100000D01*
G75*
G02*
X121195000Y-89000000I0J100000D01*
G01*
G37*
G36*
G01*
X122010000Y-89000000D02*
X122010000Y-88800000D01*
G75*
G02*
X122110000Y-88700000I100000J0D01*
G01*
X122545000Y-88700000D01*
G75*
G02*
X122645000Y-88800000I0J-100000D01*
G01*
X122645000Y-89000000D01*
G75*
G02*
X122545000Y-89100000I-100000J0D01*
G01*
X122110000Y-89100000D01*
G75*
G02*
X122010000Y-89000000I0J100000D01*
G01*
G37*
%TD*%
%TO.C,R4*%
G36*
G01*
X122010000Y-94080000D02*
X122010000Y-93880000D01*
G75*
G02*
X122110000Y-93780000I100000J0D01*
G01*
X122545000Y-93780000D01*
G75*
G02*
X122645000Y-93880000I0J-100000D01*
G01*
X122645000Y-94080000D01*
G75*
G02*
X122545000Y-94180000I-100000J0D01*
G01*
X122110000Y-94180000D01*
G75*
G02*
X122010000Y-94080000I0J100000D01*
G01*
G37*
G36*
G01*
X121195000Y-94080000D02*
X121195000Y-93880000D01*
G75*
G02*
X121295000Y-93780000I100000J0D01*
G01*
X121730000Y-93780000D01*
G75*
G02*
X121830000Y-93880000I0J-100000D01*
G01*
X121830000Y-94080000D01*
G75*
G02*
X121730000Y-94180000I-100000J0D01*
G01*
X121295000Y-94180000D01*
G75*
G02*
X121195000Y-94080000I0J100000D01*
G01*
G37*
%TD*%
%TO.C,R5*%
G36*
G01*
X99605000Y-78205000D02*
X99605000Y-78005000D01*
G75*
G02*
X99705000Y-77905000I100000J0D01*
G01*
X100140000Y-77905000D01*
G75*
G02*
X100240000Y-78005000I0J-100000D01*
G01*
X100240000Y-78205000D01*
G75*
G02*
X100140000Y-78305000I-100000J0D01*
G01*
X99705000Y-78305000D01*
G75*
G02*
X99605000Y-78205000I0J100000D01*
G01*
G37*
G36*
G01*
X100420000Y-78205000D02*
X100420000Y-78005000D01*
G75*
G02*
X100520000Y-77905000I100000J0D01*
G01*
X100955000Y-77905000D01*
G75*
G02*
X101055000Y-78005000I0J-100000D01*
G01*
X101055000Y-78205000D01*
G75*
G02*
X100955000Y-78305000I-100000J0D01*
G01*
X100520000Y-78305000D01*
G75*
G02*
X100420000Y-78205000I0J100000D01*
G01*
G37*
%TD*%
%TO.C,R6*%
G36*
G01*
X99605000Y-82015000D02*
X99605000Y-81815000D01*
G75*
G02*
X99705000Y-81715000I100000J0D01*
G01*
X100140000Y-81715000D01*
G75*
G02*
X100240000Y-81815000I0J-100000D01*
G01*
X100240000Y-82015000D01*
G75*
G02*
X100140000Y-82115000I-100000J0D01*
G01*
X99705000Y-82115000D01*
G75*
G02*
X99605000Y-82015000I0J100000D01*
G01*
G37*
G36*
G01*
X100420000Y-82015000D02*
X100420000Y-81815000D01*
G75*
G02*
X100520000Y-81715000I100000J0D01*
G01*
X100955000Y-81715000D01*
G75*
G02*
X101055000Y-81815000I0J-100000D01*
G01*
X101055000Y-82015000D01*
G75*
G02*
X100955000Y-82115000I-100000J0D01*
G01*
X100520000Y-82115000D01*
G75*
G02*
X100420000Y-82015000I0J100000D01*
G01*
G37*
%TD*%
%TO.C,R7*%
G36*
G01*
X100420000Y-85825000D02*
X100420000Y-85625000D01*
G75*
G02*
X100520000Y-85525000I100000J0D01*
G01*
X100955000Y-85525000D01*
G75*
G02*
X101055000Y-85625000I0J-100000D01*
G01*
X101055000Y-85825000D01*
G75*
G02*
X100955000Y-85925000I-100000J0D01*
G01*
X100520000Y-85925000D01*
G75*
G02*
X100420000Y-85825000I0J100000D01*
G01*
G37*
G36*
G01*
X99605000Y-85825000D02*
X99605000Y-85625000D01*
G75*
G02*
X99705000Y-85525000I100000J0D01*
G01*
X100140000Y-85525000D01*
G75*
G02*
X100240000Y-85625000I0J-100000D01*
G01*
X100240000Y-85825000D01*
G75*
G02*
X100140000Y-85925000I-100000J0D01*
G01*
X99705000Y-85925000D01*
G75*
G02*
X99605000Y-85825000I0J100000D01*
G01*
G37*
%TD*%
%TO.C,R8*%
G36*
G01*
X98515000Y-105510000D02*
X98515000Y-105310000D01*
G75*
G02*
X98615000Y-105210000I100000J0D01*
G01*
X99050000Y-105210000D01*
G75*
G02*
X99150000Y-105310000I0J-100000D01*
G01*
X99150000Y-105510000D01*
G75*
G02*
X99050000Y-105610000I-100000J0D01*
G01*
X98615000Y-105610000D01*
G75*
G02*
X98515000Y-105510000I0J100000D01*
G01*
G37*
G36*
G01*
X97700000Y-105510000D02*
X97700000Y-105310000D01*
G75*
G02*
X97800000Y-105210000I100000J0D01*
G01*
X98235000Y-105210000D01*
G75*
G02*
X98335000Y-105310000I0J-100000D01*
G01*
X98335000Y-105510000D01*
G75*
G02*
X98235000Y-105610000I-100000J0D01*
G01*
X97800000Y-105610000D01*
G75*
G02*
X97700000Y-105510000I0J100000D01*
G01*
G37*
%TD*%
%TO.C,R9*%
G36*
G01*
X98515000Y-108685000D02*
X98515000Y-108485000D01*
G75*
G02*
X98615000Y-108385000I100000J0D01*
G01*
X99050000Y-108385000D01*
G75*
G02*
X99150000Y-108485000I0J-100000D01*
G01*
X99150000Y-108685000D01*
G75*
G02*
X99050000Y-108785000I-100000J0D01*
G01*
X98615000Y-108785000D01*
G75*
G02*
X98515000Y-108685000I0J100000D01*
G01*
G37*
G36*
G01*
X97700000Y-108685000D02*
X97700000Y-108485000D01*
G75*
G02*
X97800000Y-108385000I100000J0D01*
G01*
X98235000Y-108385000D01*
G75*
G02*
X98335000Y-108485000I0J-100000D01*
G01*
X98335000Y-108685000D01*
G75*
G02*
X98235000Y-108785000I-100000J0D01*
G01*
X97800000Y-108785000D01*
G75*
G02*
X97700000Y-108685000I0J100000D01*
G01*
G37*
%TD*%
%TO.C,R10*%
G36*
G01*
X97700000Y-111860000D02*
X97700000Y-111660000D01*
G75*
G02*
X97800000Y-111560000I100000J0D01*
G01*
X98235000Y-111560000D01*
G75*
G02*
X98335000Y-111660000I0J-100000D01*
G01*
X98335000Y-111860000D01*
G75*
G02*
X98235000Y-111960000I-100000J0D01*
G01*
X97800000Y-111960000D01*
G75*
G02*
X97700000Y-111860000I0J100000D01*
G01*
G37*
G36*
G01*
X98515000Y-111860000D02*
X98515000Y-111660000D01*
G75*
G02*
X98615000Y-111560000I100000J0D01*
G01*
X99050000Y-111560000D01*
G75*
G02*
X99150000Y-111660000I0J-100000D01*
G01*
X99150000Y-111860000D01*
G75*
G02*
X99050000Y-111960000I-100000J0D01*
G01*
X98615000Y-111960000D01*
G75*
G02*
X98515000Y-111860000I0J100000D01*
G01*
G37*
%TD*%
%TO.C,R11*%
G36*
G01*
X97700000Y-115035000D02*
X97700000Y-114835000D01*
G75*
G02*
X97800000Y-114735000I100000J0D01*
G01*
X98235000Y-114735000D01*
G75*
G02*
X98335000Y-114835000I0J-100000D01*
G01*
X98335000Y-115035000D01*
G75*
G02*
X98235000Y-115135000I-100000J0D01*
G01*
X97800000Y-115135000D01*
G75*
G02*
X97700000Y-115035000I0J100000D01*
G01*
G37*
G36*
G01*
X98515000Y-115035000D02*
X98515000Y-114835000D01*
G75*
G02*
X98615000Y-114735000I100000J0D01*
G01*
X99050000Y-114735000D01*
G75*
G02*
X99150000Y-114835000I0J-100000D01*
G01*
X99150000Y-115035000D01*
G75*
G02*
X99050000Y-115135000I-100000J0D01*
G01*
X98615000Y-115135000D01*
G75*
G02*
X98515000Y-115035000I0J100000D01*
G01*
G37*
%TD*%
%TO.C,R12*%
G36*
G01*
X98742500Y-118210000D02*
X98742500Y-118010000D01*
G75*
G02*
X98842500Y-117910000I100000J0D01*
G01*
X99277500Y-117910000D01*
G75*
G02*
X99377500Y-118010000I0J-100000D01*
G01*
X99377500Y-118210000D01*
G75*
G02*
X99277500Y-118310000I-100000J0D01*
G01*
X98842500Y-118310000D01*
G75*
G02*
X98742500Y-118210000I0J100000D01*
G01*
G37*
G36*
G01*
X97927500Y-118210000D02*
X97927500Y-118010000D01*
G75*
G02*
X98027500Y-117910000I100000J0D01*
G01*
X98462500Y-117910000D01*
G75*
G02*
X98562500Y-118010000I0J-100000D01*
G01*
X98562500Y-118210000D01*
G75*
G02*
X98462500Y-118310000I-100000J0D01*
G01*
X98027500Y-118310000D01*
G75*
G02*
X97927500Y-118210000I0J100000D01*
G01*
G37*
%TD*%
%TO.C,R13*%
G36*
G01*
X97700000Y-121385000D02*
X97700000Y-121185000D01*
G75*
G02*
X97800000Y-121085000I100000J0D01*
G01*
X98235000Y-121085000D01*
G75*
G02*
X98335000Y-121185000I0J-100000D01*
G01*
X98335000Y-121385000D01*
G75*
G02*
X98235000Y-121485000I-100000J0D01*
G01*
X97800000Y-121485000D01*
G75*
G02*
X97700000Y-121385000I0J100000D01*
G01*
G37*
G36*
G01*
X98515000Y-121385000D02*
X98515000Y-121185000D01*
G75*
G02*
X98615000Y-121085000I100000J0D01*
G01*
X99050000Y-121085000D01*
G75*
G02*
X99150000Y-121185000I0J-100000D01*
G01*
X99150000Y-121385000D01*
G75*
G02*
X99050000Y-121485000I-100000J0D01*
G01*
X98615000Y-121485000D01*
G75*
G02*
X98515000Y-121385000I0J100000D01*
G01*
G37*
%TD*%
%TO.C,R14*%
G36*
G01*
X98515000Y-124560000D02*
X98515000Y-124360000D01*
G75*
G02*
X98615000Y-124260000I100000J0D01*
G01*
X99050000Y-124260000D01*
G75*
G02*
X99150000Y-124360000I0J-100000D01*
G01*
X99150000Y-124560000D01*
G75*
G02*
X99050000Y-124660000I-100000J0D01*
G01*
X98615000Y-124660000D01*
G75*
G02*
X98515000Y-124560000I0J100000D01*
G01*
G37*
G36*
G01*
X97700000Y-124560000D02*
X97700000Y-124360000D01*
G75*
G02*
X97800000Y-124260000I100000J0D01*
G01*
X98235000Y-124260000D01*
G75*
G02*
X98335000Y-124360000I0J-100000D01*
G01*
X98335000Y-124560000D01*
G75*
G02*
X98235000Y-124660000I-100000J0D01*
G01*
X97800000Y-124660000D01*
G75*
G02*
X97700000Y-124560000I0J100000D01*
G01*
G37*
%TD*%
%TO.C,R15*%
G36*
G01*
X97700000Y-127735000D02*
X97700000Y-127535000D01*
G75*
G02*
X97800000Y-127435000I100000J0D01*
G01*
X98235000Y-127435000D01*
G75*
G02*
X98335000Y-127535000I0J-100000D01*
G01*
X98335000Y-127735000D01*
G75*
G02*
X98235000Y-127835000I-100000J0D01*
G01*
X97800000Y-127835000D01*
G75*
G02*
X97700000Y-127735000I0J100000D01*
G01*
G37*
G36*
G01*
X98515000Y-127735000D02*
X98515000Y-127535000D01*
G75*
G02*
X98615000Y-127435000I100000J0D01*
G01*
X99050000Y-127435000D01*
G75*
G02*
X99150000Y-127535000I0J-100000D01*
G01*
X99150000Y-127735000D01*
G75*
G02*
X99050000Y-127835000I-100000J0D01*
G01*
X98615000Y-127835000D01*
G75*
G02*
X98515000Y-127735000I0J100000D01*
G01*
G37*
%TD*%
%TO.C,R16*%
G36*
G01*
X122645000Y-104675000D02*
X122645000Y-104875000D01*
G75*
G02*
X122545000Y-104975000I-100000J0D01*
G01*
X122110000Y-104975000D01*
G75*
G02*
X122010000Y-104875000I0J100000D01*
G01*
X122010000Y-104675000D01*
G75*
G02*
X122110000Y-104575000I100000J0D01*
G01*
X122545000Y-104575000D01*
G75*
G02*
X122645000Y-104675000I0J-100000D01*
G01*
G37*
G36*
G01*
X121830000Y-104675000D02*
X121830000Y-104875000D01*
G75*
G02*
X121730000Y-104975000I-100000J0D01*
G01*
X121295000Y-104975000D01*
G75*
G02*
X121195000Y-104875000I0J100000D01*
G01*
X121195000Y-104675000D01*
G75*
G02*
X121295000Y-104575000I100000J0D01*
G01*
X121730000Y-104575000D01*
G75*
G02*
X121830000Y-104675000I0J-100000D01*
G01*
G37*
%TD*%
%TO.C,R17*%
G36*
G01*
X121830000Y-111660000D02*
X121830000Y-111860000D01*
G75*
G02*
X121730000Y-111960000I-100000J0D01*
G01*
X121295000Y-111960000D01*
G75*
G02*
X121195000Y-111860000I0J100000D01*
G01*
X121195000Y-111660000D01*
G75*
G02*
X121295000Y-111560000I100000J0D01*
G01*
X121730000Y-111560000D01*
G75*
G02*
X121830000Y-111660000I0J-100000D01*
G01*
G37*
G36*
G01*
X122645000Y-111660000D02*
X122645000Y-111860000D01*
G75*
G02*
X122545000Y-111960000I-100000J0D01*
G01*
X122110000Y-111960000D01*
G75*
G02*
X122010000Y-111860000I0J100000D01*
G01*
X122010000Y-111660000D01*
G75*
G02*
X122110000Y-111560000I100000J0D01*
G01*
X122545000Y-111560000D01*
G75*
G02*
X122645000Y-111660000I0J-100000D01*
G01*
G37*
%TD*%
%TO.C,R18*%
G36*
G01*
X122645000Y-118645000D02*
X122645000Y-118845000D01*
G75*
G02*
X122545000Y-118945000I-100000J0D01*
G01*
X122110000Y-118945000D01*
G75*
G02*
X122010000Y-118845000I0J100000D01*
G01*
X122010000Y-118645000D01*
G75*
G02*
X122110000Y-118545000I100000J0D01*
G01*
X122545000Y-118545000D01*
G75*
G02*
X122645000Y-118645000I0J-100000D01*
G01*
G37*
G36*
G01*
X121830000Y-118645000D02*
X121830000Y-118845000D01*
G75*
G02*
X121730000Y-118945000I-100000J0D01*
G01*
X121295000Y-118945000D01*
G75*
G02*
X121195000Y-118845000I0J100000D01*
G01*
X121195000Y-118645000D01*
G75*
G02*
X121295000Y-118545000I100000J0D01*
G01*
X121730000Y-118545000D01*
G75*
G02*
X121830000Y-118645000I0J-100000D01*
G01*
G37*
%TD*%
%TO.C,R19*%
G36*
G01*
X121830000Y-125630000D02*
X121830000Y-125830000D01*
G75*
G02*
X121730000Y-125930000I-100000J0D01*
G01*
X121295000Y-125930000D01*
G75*
G02*
X121195000Y-125830000I0J100000D01*
G01*
X121195000Y-125630000D01*
G75*
G02*
X121295000Y-125530000I100000J0D01*
G01*
X121730000Y-125530000D01*
G75*
G02*
X121830000Y-125630000I0J-100000D01*
G01*
G37*
G36*
G01*
X122645000Y-125630000D02*
X122645000Y-125830000D01*
G75*
G02*
X122545000Y-125930000I-100000J0D01*
G01*
X122110000Y-125930000D01*
G75*
G02*
X122010000Y-125830000I0J100000D01*
G01*
X122010000Y-125630000D01*
G75*
G02*
X122110000Y-125530000I100000J0D01*
G01*
X122545000Y-125530000D01*
G75*
G02*
X122645000Y-125630000I0J-100000D01*
G01*
G37*
%TD*%
D12*
%TO.C,SW1*%
X132970001Y-102670001D03*
X132970001Y-106820001D03*
X130820001Y-102670001D03*
X130820001Y-106820001D03*
%TD*%
%TO.C,SW2*%
X131005000Y-113835000D03*
X131005000Y-109685000D03*
X133155000Y-113835000D03*
X133155000Y-109685000D03*
%TD*%
%TO.C,SW3*%
X133155000Y-116670000D03*
X133155000Y-120820000D03*
X131005000Y-116670000D03*
X131005000Y-120820000D03*
%TD*%
%TO.C,SW4*%
X131005000Y-127805000D03*
X131005000Y-123655000D03*
X133155000Y-127805000D03*
X133155000Y-123655000D03*
%TD*%
D13*
%TO.C,U1*%
X88820000Y-118450000D03*
X88820000Y-117010000D03*
X88820000Y-115570000D03*
X88820000Y-114130000D03*
X88820000Y-112690000D03*
X78820000Y-112690000D03*
X78820000Y-114130000D03*
X78820000Y-115570000D03*
X78820000Y-117010000D03*
X78820000Y-118450000D03*
%TD*%
M02*
