%TF.GenerationSoftware,KiCad,Pcbnew,(5.1.9)-1*%
%TF.CreationDate,2021-01-13T23:08:58-08:00*%
%TF.ProjectId,lab-1,6c61622d-312e-46b6-9963-61645f706362,rev?*%
%TF.SameCoordinates,Original*%
%TF.FileFunction,Copper,L2,Bot*%
%TF.FilePolarity,Positive*%
%FSLAX46Y46*%
G04 Gerber Fmt 4.6, Leading zero omitted, Abs format (unit mm)*
G04 Created by KiCad (PCBNEW (5.1.9)-1) date 2021-01-13 23:08:58*
%MOMM*%
%LPD*%
G01*
G04 APERTURE LIST*
%TA.AperFunction,ViaPad*%
%ADD10C,0.800000*%
%TD*%
%TA.AperFunction,Conductor*%
%ADD11C,0.250000*%
%TD*%
%TA.AperFunction,Conductor*%
%ADD12C,0.254000*%
%TD*%
%TA.AperFunction,Conductor*%
%ADD13C,0.100000*%
%TD*%
G04 APERTURE END LIST*
D10*
%TO.N,GND*%
X104140000Y-91440000D03*
%TO.N,Net-(J1-Pad33)*%
X116205000Y-115570000D03*
X125730000Y-108585000D03*
%TO.N,Net-(J1-Pad35)*%
X118110000Y-116205000D03*
X118110000Y-116205000D03*
X125730000Y-116205000D03*
%TO.N,Net-(J1-Pad37)*%
X116840000Y-121285000D03*
X125730000Y-121285000D03*
%TO.N,Net-(J1-Pad39)*%
X118745000Y-123825000D03*
X118745000Y-123825000D03*
X125730000Y-123825000D03*
%TO.N,Net-(R14-Pad1)*%
X96610000Y-125095000D03*
X96610000Y-128360000D03*
%TO.N,Net-(R15-Pad1)*%
X95250000Y-119290000D03*
X94615000Y-113030000D03*
%TD*%
D11*
%TO.N,GND*%
X104140000Y-91440000D02*
X104140000Y-76835000D01*
X104140000Y-76835000D02*
X104775000Y-76200000D01*
X104775000Y-76200000D02*
X121920000Y-76200000D01*
X121920000Y-76200000D02*
X122555000Y-76835000D01*
X122555000Y-76835000D02*
X122555000Y-78740000D01*
X83820000Y-119380000D02*
X83820000Y-115570000D01*
X95885000Y-120650000D02*
X95250000Y-120015000D01*
X95250000Y-120015000D02*
X84455000Y-120015000D01*
X95885000Y-128905000D02*
X95885000Y-120650000D01*
X99695000Y-130175000D02*
X97155000Y-130175000D01*
X102235000Y-127635000D02*
X99695000Y-130175000D01*
X97155000Y-130175000D02*
X95885000Y-128905000D01*
X106700000Y-114300000D02*
X102235000Y-114300000D01*
X84455000Y-120015000D02*
X83820000Y-119380000D01*
X102235000Y-114300000D02*
X102235000Y-127635000D01*
X83820000Y-115570000D02*
X88820000Y-115570000D01*
X78820000Y-115570000D02*
X83820000Y-115570000D01*
%TO.N,Net-(J1-Pad33)*%
X116205000Y-115570000D02*
X116205000Y-111760000D01*
X116205000Y-111760000D02*
X119380000Y-108585000D01*
X119380000Y-108585000D02*
X125730000Y-108585000D01*
%TO.N,Net-(J1-Pad35)*%
X118110000Y-116205000D02*
X125730000Y-116205000D01*
%TO.N,Net-(J1-Pad37)*%
X116840000Y-121285000D02*
X125730000Y-121285000D01*
%TO.N,Net-(J1-Pad39)*%
X118745000Y-123825000D02*
X125730000Y-123825000D01*
%TO.N,Net-(R14-Pad1)*%
X96610000Y-125095000D02*
X96610000Y-128180000D01*
X96610000Y-128180000D02*
X96520000Y-128270000D01*
X96520000Y-128270000D02*
X96610000Y-128360000D01*
%TO.N,Net-(R15-Pad1)*%
X95250000Y-119290000D02*
X95250000Y-113665000D01*
X95250000Y-113665000D02*
X94615000Y-113030000D01*
%TD*%
D12*
%TO.N,GND*%
X136398000Y-131953000D02*
X76327000Y-131953000D01*
X76327000Y-124993061D01*
X95575000Y-124993061D01*
X95575000Y-125196939D01*
X95614774Y-125396898D01*
X95692795Y-125585256D01*
X95806063Y-125754774D01*
X95850000Y-125798711D01*
X95850001Y-127656288D01*
X95806063Y-127700226D01*
X95692795Y-127869744D01*
X95614774Y-128058102D01*
X95575000Y-128258061D01*
X95575000Y-128461939D01*
X95614774Y-128661898D01*
X95692795Y-128850256D01*
X95806063Y-129019774D01*
X95950226Y-129163937D01*
X96119744Y-129277205D01*
X96308102Y-129355226D01*
X96508061Y-129395000D01*
X96711939Y-129395000D01*
X96911898Y-129355226D01*
X97100256Y-129277205D01*
X97269774Y-129163937D01*
X97413937Y-129019774D01*
X97527205Y-128850256D01*
X97605226Y-128661898D01*
X97645000Y-128461939D01*
X97645000Y-128258061D01*
X97605226Y-128058102D01*
X97527205Y-127869744D01*
X97413937Y-127700226D01*
X97370000Y-127656289D01*
X97370000Y-125798711D01*
X97413937Y-125754774D01*
X97527205Y-125585256D01*
X97605226Y-125396898D01*
X97645000Y-125196939D01*
X97645000Y-124993061D01*
X97605226Y-124793102D01*
X97527205Y-124604744D01*
X97413937Y-124435226D01*
X97269774Y-124291063D01*
X97100256Y-124177795D01*
X96911898Y-124099774D01*
X96711939Y-124060000D01*
X96508061Y-124060000D01*
X96308102Y-124099774D01*
X96119744Y-124177795D01*
X95950226Y-124291063D01*
X95806063Y-124435226D01*
X95692795Y-124604744D01*
X95614774Y-124793102D01*
X95575000Y-124993061D01*
X76327000Y-124993061D01*
X76327000Y-123723061D01*
X117710000Y-123723061D01*
X117710000Y-123926939D01*
X117749774Y-124126898D01*
X117827795Y-124315256D01*
X117941063Y-124484774D01*
X118085226Y-124628937D01*
X118254744Y-124742205D01*
X118443102Y-124820226D01*
X118643061Y-124860000D01*
X118846939Y-124860000D01*
X119046898Y-124820226D01*
X119235256Y-124742205D01*
X119404774Y-124628937D01*
X119448711Y-124585000D01*
X125026289Y-124585000D01*
X125070226Y-124628937D01*
X125239744Y-124742205D01*
X125428102Y-124820226D01*
X125628061Y-124860000D01*
X125831939Y-124860000D01*
X126031898Y-124820226D01*
X126220256Y-124742205D01*
X126389774Y-124628937D01*
X126533937Y-124484774D01*
X126647205Y-124315256D01*
X126725226Y-124126898D01*
X126765000Y-123926939D01*
X126765000Y-123723061D01*
X126725226Y-123523102D01*
X126647205Y-123334744D01*
X126533937Y-123165226D01*
X126389774Y-123021063D01*
X126220256Y-122907795D01*
X126031898Y-122829774D01*
X125831939Y-122790000D01*
X125628061Y-122790000D01*
X125428102Y-122829774D01*
X125239744Y-122907795D01*
X125070226Y-123021063D01*
X125026289Y-123065000D01*
X119448711Y-123065000D01*
X119404774Y-123021063D01*
X119235256Y-122907795D01*
X119046898Y-122829774D01*
X118846939Y-122790000D01*
X118643061Y-122790000D01*
X118443102Y-122829774D01*
X118254744Y-122907795D01*
X118085226Y-123021063D01*
X117941063Y-123165226D01*
X117827795Y-123334744D01*
X117749774Y-123523102D01*
X117710000Y-123723061D01*
X76327000Y-123723061D01*
X76327000Y-121183061D01*
X115805000Y-121183061D01*
X115805000Y-121386939D01*
X115844774Y-121586898D01*
X115922795Y-121775256D01*
X116036063Y-121944774D01*
X116180226Y-122088937D01*
X116349744Y-122202205D01*
X116538102Y-122280226D01*
X116738061Y-122320000D01*
X116941939Y-122320000D01*
X117141898Y-122280226D01*
X117330256Y-122202205D01*
X117499774Y-122088937D01*
X117543711Y-122045000D01*
X125026289Y-122045000D01*
X125070226Y-122088937D01*
X125239744Y-122202205D01*
X125428102Y-122280226D01*
X125628061Y-122320000D01*
X125831939Y-122320000D01*
X126031898Y-122280226D01*
X126220256Y-122202205D01*
X126389774Y-122088937D01*
X126533937Y-121944774D01*
X126647205Y-121775256D01*
X126725226Y-121586898D01*
X126765000Y-121386939D01*
X126765000Y-121183061D01*
X126725226Y-120983102D01*
X126647205Y-120794744D01*
X126533937Y-120625226D01*
X126389774Y-120481063D01*
X126220256Y-120367795D01*
X126031898Y-120289774D01*
X125831939Y-120250000D01*
X125628061Y-120250000D01*
X125428102Y-120289774D01*
X125239744Y-120367795D01*
X125070226Y-120481063D01*
X125026289Y-120525000D01*
X117543711Y-120525000D01*
X117499774Y-120481063D01*
X117330256Y-120367795D01*
X117141898Y-120289774D01*
X116941939Y-120250000D01*
X116738061Y-120250000D01*
X116538102Y-120289774D01*
X116349744Y-120367795D01*
X116180226Y-120481063D01*
X116036063Y-120625226D01*
X115922795Y-120794744D01*
X115844774Y-120983102D01*
X115805000Y-121183061D01*
X76327000Y-121183061D01*
X76327000Y-112928061D01*
X93580000Y-112928061D01*
X93580000Y-113131939D01*
X93619774Y-113331898D01*
X93697795Y-113520256D01*
X93811063Y-113689774D01*
X93955226Y-113833937D01*
X94124744Y-113947205D01*
X94313102Y-114025226D01*
X94490001Y-114060413D01*
X94490000Y-118586289D01*
X94446063Y-118630226D01*
X94332795Y-118799744D01*
X94254774Y-118988102D01*
X94215000Y-119188061D01*
X94215000Y-119391939D01*
X94254774Y-119591898D01*
X94332795Y-119780256D01*
X94446063Y-119949774D01*
X94590226Y-120093937D01*
X94759744Y-120207205D01*
X94948102Y-120285226D01*
X95148061Y-120325000D01*
X95351939Y-120325000D01*
X95551898Y-120285226D01*
X95740256Y-120207205D01*
X95909774Y-120093937D01*
X96053937Y-119949774D01*
X96167205Y-119780256D01*
X96245226Y-119591898D01*
X96285000Y-119391939D01*
X96285000Y-119188061D01*
X96245226Y-118988102D01*
X96167205Y-118799744D01*
X96053937Y-118630226D01*
X96010000Y-118586289D01*
X96010000Y-115468061D01*
X115170000Y-115468061D01*
X115170000Y-115671939D01*
X115209774Y-115871898D01*
X115287795Y-116060256D01*
X115401063Y-116229774D01*
X115545226Y-116373937D01*
X115714744Y-116487205D01*
X115903102Y-116565226D01*
X116103061Y-116605000D01*
X116306939Y-116605000D01*
X116506898Y-116565226D01*
X116695256Y-116487205D01*
X116864774Y-116373937D01*
X117008937Y-116229774D01*
X117075000Y-116130903D01*
X117075000Y-116306939D01*
X117114774Y-116506898D01*
X117192795Y-116695256D01*
X117306063Y-116864774D01*
X117450226Y-117008937D01*
X117619744Y-117122205D01*
X117808102Y-117200226D01*
X118008061Y-117240000D01*
X118211939Y-117240000D01*
X118411898Y-117200226D01*
X118600256Y-117122205D01*
X118769774Y-117008937D01*
X118813711Y-116965000D01*
X125026289Y-116965000D01*
X125070226Y-117008937D01*
X125239744Y-117122205D01*
X125428102Y-117200226D01*
X125628061Y-117240000D01*
X125831939Y-117240000D01*
X126031898Y-117200226D01*
X126220256Y-117122205D01*
X126389774Y-117008937D01*
X126533937Y-116864774D01*
X126647205Y-116695256D01*
X126725226Y-116506898D01*
X126765000Y-116306939D01*
X126765000Y-116103061D01*
X126725226Y-115903102D01*
X126647205Y-115714744D01*
X126533937Y-115545226D01*
X126389774Y-115401063D01*
X126220256Y-115287795D01*
X126031898Y-115209774D01*
X125831939Y-115170000D01*
X125628061Y-115170000D01*
X125428102Y-115209774D01*
X125239744Y-115287795D01*
X125070226Y-115401063D01*
X125026289Y-115445000D01*
X118813711Y-115445000D01*
X118769774Y-115401063D01*
X118600256Y-115287795D01*
X118411898Y-115209774D01*
X118211939Y-115170000D01*
X118008061Y-115170000D01*
X117808102Y-115209774D01*
X117619744Y-115287795D01*
X117450226Y-115401063D01*
X117306063Y-115545226D01*
X117240000Y-115644097D01*
X117240000Y-115468061D01*
X117200226Y-115268102D01*
X117122205Y-115079744D01*
X117008937Y-114910226D01*
X116965000Y-114866289D01*
X116965000Y-112074801D01*
X119694802Y-109345000D01*
X125026289Y-109345000D01*
X125070226Y-109388937D01*
X125239744Y-109502205D01*
X125428102Y-109580226D01*
X125628061Y-109620000D01*
X125831939Y-109620000D01*
X126031898Y-109580226D01*
X126220256Y-109502205D01*
X126389774Y-109388937D01*
X126533937Y-109244774D01*
X126647205Y-109075256D01*
X126725226Y-108886898D01*
X126765000Y-108686939D01*
X126765000Y-108483061D01*
X126725226Y-108283102D01*
X126647205Y-108094744D01*
X126533937Y-107925226D01*
X126389774Y-107781063D01*
X126220256Y-107667795D01*
X126031898Y-107589774D01*
X125831939Y-107550000D01*
X125628061Y-107550000D01*
X125428102Y-107589774D01*
X125239744Y-107667795D01*
X125070226Y-107781063D01*
X125026289Y-107825000D01*
X119417322Y-107825000D01*
X119379999Y-107821324D01*
X119342676Y-107825000D01*
X119342667Y-107825000D01*
X119231014Y-107835997D01*
X119087753Y-107879454D01*
X118955723Y-107950026D01*
X118872083Y-108018668D01*
X118839999Y-108044999D01*
X118816201Y-108073997D01*
X115693998Y-111196201D01*
X115665000Y-111219999D01*
X115641202Y-111248997D01*
X115641201Y-111248998D01*
X115570026Y-111335724D01*
X115499454Y-111467754D01*
X115455998Y-111611015D01*
X115441324Y-111760000D01*
X115445001Y-111797332D01*
X115445000Y-114866289D01*
X115401063Y-114910226D01*
X115287795Y-115079744D01*
X115209774Y-115268102D01*
X115170000Y-115468061D01*
X96010000Y-115468061D01*
X96010000Y-113702333D01*
X96013677Y-113665000D01*
X95999003Y-113516014D01*
X95955546Y-113372753D01*
X95884974Y-113240724D01*
X95813799Y-113153997D01*
X95790001Y-113124999D01*
X95761002Y-113101200D01*
X95650000Y-112990198D01*
X95650000Y-112928061D01*
X95610226Y-112728102D01*
X95532205Y-112539744D01*
X95418937Y-112370226D01*
X95274774Y-112226063D01*
X95105256Y-112112795D01*
X94916898Y-112034774D01*
X94716939Y-111995000D01*
X94513061Y-111995000D01*
X94313102Y-112034774D01*
X94124744Y-112112795D01*
X93955226Y-112226063D01*
X93811063Y-112370226D01*
X93697795Y-112539744D01*
X93619774Y-112728102D01*
X93580000Y-112928061D01*
X76327000Y-112928061D01*
X76327000Y-75692000D01*
X136398000Y-75692000D01*
X136398000Y-131953000D01*
%TA.AperFunction,Conductor*%
D13*
G36*
X136398000Y-131953000D02*
G01*
X76327000Y-131953000D01*
X76327000Y-124993061D01*
X95575000Y-124993061D01*
X95575000Y-125196939D01*
X95614774Y-125396898D01*
X95692795Y-125585256D01*
X95806063Y-125754774D01*
X95850000Y-125798711D01*
X95850001Y-127656288D01*
X95806063Y-127700226D01*
X95692795Y-127869744D01*
X95614774Y-128058102D01*
X95575000Y-128258061D01*
X95575000Y-128461939D01*
X95614774Y-128661898D01*
X95692795Y-128850256D01*
X95806063Y-129019774D01*
X95950226Y-129163937D01*
X96119744Y-129277205D01*
X96308102Y-129355226D01*
X96508061Y-129395000D01*
X96711939Y-129395000D01*
X96911898Y-129355226D01*
X97100256Y-129277205D01*
X97269774Y-129163937D01*
X97413937Y-129019774D01*
X97527205Y-128850256D01*
X97605226Y-128661898D01*
X97645000Y-128461939D01*
X97645000Y-128258061D01*
X97605226Y-128058102D01*
X97527205Y-127869744D01*
X97413937Y-127700226D01*
X97370000Y-127656289D01*
X97370000Y-125798711D01*
X97413937Y-125754774D01*
X97527205Y-125585256D01*
X97605226Y-125396898D01*
X97645000Y-125196939D01*
X97645000Y-124993061D01*
X97605226Y-124793102D01*
X97527205Y-124604744D01*
X97413937Y-124435226D01*
X97269774Y-124291063D01*
X97100256Y-124177795D01*
X96911898Y-124099774D01*
X96711939Y-124060000D01*
X96508061Y-124060000D01*
X96308102Y-124099774D01*
X96119744Y-124177795D01*
X95950226Y-124291063D01*
X95806063Y-124435226D01*
X95692795Y-124604744D01*
X95614774Y-124793102D01*
X95575000Y-124993061D01*
X76327000Y-124993061D01*
X76327000Y-123723061D01*
X117710000Y-123723061D01*
X117710000Y-123926939D01*
X117749774Y-124126898D01*
X117827795Y-124315256D01*
X117941063Y-124484774D01*
X118085226Y-124628937D01*
X118254744Y-124742205D01*
X118443102Y-124820226D01*
X118643061Y-124860000D01*
X118846939Y-124860000D01*
X119046898Y-124820226D01*
X119235256Y-124742205D01*
X119404774Y-124628937D01*
X119448711Y-124585000D01*
X125026289Y-124585000D01*
X125070226Y-124628937D01*
X125239744Y-124742205D01*
X125428102Y-124820226D01*
X125628061Y-124860000D01*
X125831939Y-124860000D01*
X126031898Y-124820226D01*
X126220256Y-124742205D01*
X126389774Y-124628937D01*
X126533937Y-124484774D01*
X126647205Y-124315256D01*
X126725226Y-124126898D01*
X126765000Y-123926939D01*
X126765000Y-123723061D01*
X126725226Y-123523102D01*
X126647205Y-123334744D01*
X126533937Y-123165226D01*
X126389774Y-123021063D01*
X126220256Y-122907795D01*
X126031898Y-122829774D01*
X125831939Y-122790000D01*
X125628061Y-122790000D01*
X125428102Y-122829774D01*
X125239744Y-122907795D01*
X125070226Y-123021063D01*
X125026289Y-123065000D01*
X119448711Y-123065000D01*
X119404774Y-123021063D01*
X119235256Y-122907795D01*
X119046898Y-122829774D01*
X118846939Y-122790000D01*
X118643061Y-122790000D01*
X118443102Y-122829774D01*
X118254744Y-122907795D01*
X118085226Y-123021063D01*
X117941063Y-123165226D01*
X117827795Y-123334744D01*
X117749774Y-123523102D01*
X117710000Y-123723061D01*
X76327000Y-123723061D01*
X76327000Y-121183061D01*
X115805000Y-121183061D01*
X115805000Y-121386939D01*
X115844774Y-121586898D01*
X115922795Y-121775256D01*
X116036063Y-121944774D01*
X116180226Y-122088937D01*
X116349744Y-122202205D01*
X116538102Y-122280226D01*
X116738061Y-122320000D01*
X116941939Y-122320000D01*
X117141898Y-122280226D01*
X117330256Y-122202205D01*
X117499774Y-122088937D01*
X117543711Y-122045000D01*
X125026289Y-122045000D01*
X125070226Y-122088937D01*
X125239744Y-122202205D01*
X125428102Y-122280226D01*
X125628061Y-122320000D01*
X125831939Y-122320000D01*
X126031898Y-122280226D01*
X126220256Y-122202205D01*
X126389774Y-122088937D01*
X126533937Y-121944774D01*
X126647205Y-121775256D01*
X126725226Y-121586898D01*
X126765000Y-121386939D01*
X126765000Y-121183061D01*
X126725226Y-120983102D01*
X126647205Y-120794744D01*
X126533937Y-120625226D01*
X126389774Y-120481063D01*
X126220256Y-120367795D01*
X126031898Y-120289774D01*
X125831939Y-120250000D01*
X125628061Y-120250000D01*
X125428102Y-120289774D01*
X125239744Y-120367795D01*
X125070226Y-120481063D01*
X125026289Y-120525000D01*
X117543711Y-120525000D01*
X117499774Y-120481063D01*
X117330256Y-120367795D01*
X117141898Y-120289774D01*
X116941939Y-120250000D01*
X116738061Y-120250000D01*
X116538102Y-120289774D01*
X116349744Y-120367795D01*
X116180226Y-120481063D01*
X116036063Y-120625226D01*
X115922795Y-120794744D01*
X115844774Y-120983102D01*
X115805000Y-121183061D01*
X76327000Y-121183061D01*
X76327000Y-112928061D01*
X93580000Y-112928061D01*
X93580000Y-113131939D01*
X93619774Y-113331898D01*
X93697795Y-113520256D01*
X93811063Y-113689774D01*
X93955226Y-113833937D01*
X94124744Y-113947205D01*
X94313102Y-114025226D01*
X94490001Y-114060413D01*
X94490000Y-118586289D01*
X94446063Y-118630226D01*
X94332795Y-118799744D01*
X94254774Y-118988102D01*
X94215000Y-119188061D01*
X94215000Y-119391939D01*
X94254774Y-119591898D01*
X94332795Y-119780256D01*
X94446063Y-119949774D01*
X94590226Y-120093937D01*
X94759744Y-120207205D01*
X94948102Y-120285226D01*
X95148061Y-120325000D01*
X95351939Y-120325000D01*
X95551898Y-120285226D01*
X95740256Y-120207205D01*
X95909774Y-120093937D01*
X96053937Y-119949774D01*
X96167205Y-119780256D01*
X96245226Y-119591898D01*
X96285000Y-119391939D01*
X96285000Y-119188061D01*
X96245226Y-118988102D01*
X96167205Y-118799744D01*
X96053937Y-118630226D01*
X96010000Y-118586289D01*
X96010000Y-115468061D01*
X115170000Y-115468061D01*
X115170000Y-115671939D01*
X115209774Y-115871898D01*
X115287795Y-116060256D01*
X115401063Y-116229774D01*
X115545226Y-116373937D01*
X115714744Y-116487205D01*
X115903102Y-116565226D01*
X116103061Y-116605000D01*
X116306939Y-116605000D01*
X116506898Y-116565226D01*
X116695256Y-116487205D01*
X116864774Y-116373937D01*
X117008937Y-116229774D01*
X117075000Y-116130903D01*
X117075000Y-116306939D01*
X117114774Y-116506898D01*
X117192795Y-116695256D01*
X117306063Y-116864774D01*
X117450226Y-117008937D01*
X117619744Y-117122205D01*
X117808102Y-117200226D01*
X118008061Y-117240000D01*
X118211939Y-117240000D01*
X118411898Y-117200226D01*
X118600256Y-117122205D01*
X118769774Y-117008937D01*
X118813711Y-116965000D01*
X125026289Y-116965000D01*
X125070226Y-117008937D01*
X125239744Y-117122205D01*
X125428102Y-117200226D01*
X125628061Y-117240000D01*
X125831939Y-117240000D01*
X126031898Y-117200226D01*
X126220256Y-117122205D01*
X126389774Y-117008937D01*
X126533937Y-116864774D01*
X126647205Y-116695256D01*
X126725226Y-116506898D01*
X126765000Y-116306939D01*
X126765000Y-116103061D01*
X126725226Y-115903102D01*
X126647205Y-115714744D01*
X126533937Y-115545226D01*
X126389774Y-115401063D01*
X126220256Y-115287795D01*
X126031898Y-115209774D01*
X125831939Y-115170000D01*
X125628061Y-115170000D01*
X125428102Y-115209774D01*
X125239744Y-115287795D01*
X125070226Y-115401063D01*
X125026289Y-115445000D01*
X118813711Y-115445000D01*
X118769774Y-115401063D01*
X118600256Y-115287795D01*
X118411898Y-115209774D01*
X118211939Y-115170000D01*
X118008061Y-115170000D01*
X117808102Y-115209774D01*
X117619744Y-115287795D01*
X117450226Y-115401063D01*
X117306063Y-115545226D01*
X117240000Y-115644097D01*
X117240000Y-115468061D01*
X117200226Y-115268102D01*
X117122205Y-115079744D01*
X117008937Y-114910226D01*
X116965000Y-114866289D01*
X116965000Y-112074801D01*
X119694802Y-109345000D01*
X125026289Y-109345000D01*
X125070226Y-109388937D01*
X125239744Y-109502205D01*
X125428102Y-109580226D01*
X125628061Y-109620000D01*
X125831939Y-109620000D01*
X126031898Y-109580226D01*
X126220256Y-109502205D01*
X126389774Y-109388937D01*
X126533937Y-109244774D01*
X126647205Y-109075256D01*
X126725226Y-108886898D01*
X126765000Y-108686939D01*
X126765000Y-108483061D01*
X126725226Y-108283102D01*
X126647205Y-108094744D01*
X126533937Y-107925226D01*
X126389774Y-107781063D01*
X126220256Y-107667795D01*
X126031898Y-107589774D01*
X125831939Y-107550000D01*
X125628061Y-107550000D01*
X125428102Y-107589774D01*
X125239744Y-107667795D01*
X125070226Y-107781063D01*
X125026289Y-107825000D01*
X119417322Y-107825000D01*
X119379999Y-107821324D01*
X119342676Y-107825000D01*
X119342667Y-107825000D01*
X119231014Y-107835997D01*
X119087753Y-107879454D01*
X118955723Y-107950026D01*
X118872083Y-108018668D01*
X118839999Y-108044999D01*
X118816201Y-108073997D01*
X115693998Y-111196201D01*
X115665000Y-111219999D01*
X115641202Y-111248997D01*
X115641201Y-111248998D01*
X115570026Y-111335724D01*
X115499454Y-111467754D01*
X115455998Y-111611015D01*
X115441324Y-111760000D01*
X115445001Y-111797332D01*
X115445000Y-114866289D01*
X115401063Y-114910226D01*
X115287795Y-115079744D01*
X115209774Y-115268102D01*
X115170000Y-115468061D01*
X96010000Y-115468061D01*
X96010000Y-113702333D01*
X96013677Y-113665000D01*
X95999003Y-113516014D01*
X95955546Y-113372753D01*
X95884974Y-113240724D01*
X95813799Y-113153997D01*
X95790001Y-113124999D01*
X95761002Y-113101200D01*
X95650000Y-112990198D01*
X95650000Y-112928061D01*
X95610226Y-112728102D01*
X95532205Y-112539744D01*
X95418937Y-112370226D01*
X95274774Y-112226063D01*
X95105256Y-112112795D01*
X94916898Y-112034774D01*
X94716939Y-111995000D01*
X94513061Y-111995000D01*
X94313102Y-112034774D01*
X94124744Y-112112795D01*
X93955226Y-112226063D01*
X93811063Y-112370226D01*
X93697795Y-112539744D01*
X93619774Y-112728102D01*
X93580000Y-112928061D01*
X76327000Y-112928061D01*
X76327000Y-75692000D01*
X136398000Y-75692000D01*
X136398000Y-131953000D01*
G37*
%TD.AperFunction*%
%TD*%
M02*
