%TF.GenerationSoftware,KiCad,Pcbnew,(5.1.9)-1*%
%TF.CreationDate,2021-01-13T23:08:58-08:00*%
%TF.ProjectId,lab-1,6c61622d-312e-46b6-9963-61645f706362,rev?*%
%TF.SameCoordinates,Original*%
%TF.FileFunction,Copper,L1,Top*%
%TF.FilePolarity,Positive*%
%FSLAX46Y46*%
G04 Gerber Fmt 4.6, Leading zero omitted, Abs format (unit mm)*
G04 Created by KiCad (PCBNEW (5.1.9)-1) date 2021-01-13 23:08:58*
%MOMM*%
%LPD*%
G01*
G04 APERTURE LIST*
%TA.AperFunction,SMDPad,CuDef*%
%ADD10R,1.500000X1.000000*%
%TD*%
%TA.AperFunction,SMDPad,CuDef*%
%ADD11R,3.000000X1.000000*%
%TD*%
%TA.AperFunction,SMDPad,CuDef*%
%ADD12R,0.650000X1.050000*%
%TD*%
%TA.AperFunction,SMDPad,CuDef*%
%ADD13R,2.800000X0.900000*%
%TD*%
%TA.AperFunction,ViaPad*%
%ADD14C,0.800000*%
%TD*%
%TA.AperFunction,Conductor*%
%ADD15C,0.250000*%
%TD*%
G04 APERTURE END LIST*
%TO.P,D1,2*%
%TO.N,Net-(D1-Pad2)*%
%TA.AperFunction,SMDPad,CuDef*%
G36*
G01*
X117660000Y-78289999D02*
X117660000Y-79190001D01*
G75*
G02*
X117410001Y-79440000I-249999J0D01*
G01*
X116759999Y-79440000D01*
G75*
G02*
X116510000Y-79190001I0J249999D01*
G01*
X116510000Y-78289999D01*
G75*
G02*
X116759999Y-78040000I249999J0D01*
G01*
X117410001Y-78040000D01*
G75*
G02*
X117660000Y-78289999I0J-249999D01*
G01*
G37*
%TD.AperFunction*%
%TO.P,D1,1*%
%TO.N,Net-(D1-Pad1)*%
%TA.AperFunction,SMDPad,CuDef*%
G36*
G01*
X119710000Y-78289999D02*
X119710000Y-79190001D01*
G75*
G02*
X119460001Y-79440000I-249999J0D01*
G01*
X118809999Y-79440000D01*
G75*
G02*
X118560000Y-79190001I0J249999D01*
G01*
X118560000Y-78289999D01*
G75*
G02*
X118809999Y-78040000I249999J0D01*
G01*
X119460001Y-78040000D01*
G75*
G02*
X119710000Y-78289999I0J-249999D01*
G01*
G37*
%TD.AperFunction*%
%TD*%
%TO.P,D2,1*%
%TO.N,Net-(D2-Pad1)*%
%TA.AperFunction,SMDPad,CuDef*%
G36*
G01*
X119955000Y-83369999D02*
X119955000Y-84270001D01*
G75*
G02*
X119705001Y-84520000I-249999J0D01*
G01*
X119054999Y-84520000D01*
G75*
G02*
X118805000Y-84270001I0J249999D01*
G01*
X118805000Y-83369999D01*
G75*
G02*
X119054999Y-83120000I249999J0D01*
G01*
X119705001Y-83120000D01*
G75*
G02*
X119955000Y-83369999I0J-249999D01*
G01*
G37*
%TD.AperFunction*%
%TO.P,D2,2*%
%TO.N,Net-(D2-Pad2)*%
%TA.AperFunction,SMDPad,CuDef*%
G36*
G01*
X117905000Y-83369999D02*
X117905000Y-84270001D01*
G75*
G02*
X117655001Y-84520000I-249999J0D01*
G01*
X117004999Y-84520000D01*
G75*
G02*
X116755000Y-84270001I0J249999D01*
G01*
X116755000Y-83369999D01*
G75*
G02*
X117004999Y-83120000I249999J0D01*
G01*
X117655001Y-83120000D01*
G75*
G02*
X117905000Y-83369999I0J-249999D01*
G01*
G37*
%TD.AperFunction*%
%TD*%
%TO.P,D3,2*%
%TO.N,Net-(D3-Pad2)*%
%TA.AperFunction,SMDPad,CuDef*%
G36*
G01*
X117660000Y-88449999D02*
X117660000Y-89350001D01*
G75*
G02*
X117410001Y-89600000I-249999J0D01*
G01*
X116759999Y-89600000D01*
G75*
G02*
X116510000Y-89350001I0J249999D01*
G01*
X116510000Y-88449999D01*
G75*
G02*
X116759999Y-88200000I249999J0D01*
G01*
X117410001Y-88200000D01*
G75*
G02*
X117660000Y-88449999I0J-249999D01*
G01*
G37*
%TD.AperFunction*%
%TO.P,D3,1*%
%TO.N,Net-(D3-Pad1)*%
%TA.AperFunction,SMDPad,CuDef*%
G36*
G01*
X119710000Y-88449999D02*
X119710000Y-89350001D01*
G75*
G02*
X119460001Y-89600000I-249999J0D01*
G01*
X118809999Y-89600000D01*
G75*
G02*
X118560000Y-89350001I0J249999D01*
G01*
X118560000Y-88449999D01*
G75*
G02*
X118809999Y-88200000I249999J0D01*
G01*
X119460001Y-88200000D01*
G75*
G02*
X119710000Y-88449999I0J-249999D01*
G01*
G37*
%TD.AperFunction*%
%TD*%
%TO.P,D4,1*%
%TO.N,Net-(D4-Pad1)*%
%TA.AperFunction,SMDPad,CuDef*%
G36*
G01*
X119710000Y-93529999D02*
X119710000Y-94430001D01*
G75*
G02*
X119460001Y-94680000I-249999J0D01*
G01*
X118809999Y-94680000D01*
G75*
G02*
X118560000Y-94430001I0J249999D01*
G01*
X118560000Y-93529999D01*
G75*
G02*
X118809999Y-93280000I249999J0D01*
G01*
X119460001Y-93280000D01*
G75*
G02*
X119710000Y-93529999I0J-249999D01*
G01*
G37*
%TD.AperFunction*%
%TO.P,D4,2*%
%TO.N,Net-(D4-Pad2)*%
%TA.AperFunction,SMDPad,CuDef*%
G36*
G01*
X117660000Y-93529999D02*
X117660000Y-94430001D01*
G75*
G02*
X117410001Y-94680000I-249999J0D01*
G01*
X116759999Y-94680000D01*
G75*
G02*
X116510000Y-94430001I0J249999D01*
G01*
X116510000Y-93529999D01*
G75*
G02*
X116759999Y-93280000I249999J0D01*
G01*
X117410001Y-93280000D01*
G75*
G02*
X117660000Y-93529999I0J-249999D01*
G01*
G37*
%TD.AperFunction*%
%TD*%
D10*
%TO.P,D5,1*%
%TO.N,Net-(D5-Pad1)*%
X95095000Y-81980000D03*
%TO.P,D5,2*%
%TO.N,Net-(D5-Pad2)*%
X95095000Y-80580000D03*
%TO.P,D5,4*%
%TO.N,GND*%
X91595000Y-81980000D03*
%TO.P,D5,3*%
%TO.N,Net-(D5-Pad3)*%
X91595000Y-80580000D03*
%TD*%
D11*
%TO.P,J1,1*%
%TO.N,Net-(D1-Pad2)*%
X111740000Y-78740000D03*
%TO.P,J1,2*%
%TO.N,Net-(J1-Pad2)*%
X106700000Y-78740000D03*
%TO.P,J1,3*%
%TO.N,Net-(D2-Pad2)*%
X111740000Y-81280000D03*
%TO.P,J1,4*%
%TO.N,Net-(J1-Pad4)*%
X106700000Y-81280000D03*
%TO.P,J1,5*%
%TO.N,Net-(D3-Pad2)*%
X111740000Y-83820000D03*
%TO.P,J1,6*%
%TO.N,Net-(J1-Pad6)*%
X106700000Y-83820000D03*
%TO.P,J1,7*%
%TO.N,Net-(D4-Pad2)*%
X111740000Y-86360000D03*
%TO.P,J1,8*%
%TO.N,Net-(J1-Pad8)*%
X106700000Y-86360000D03*
%TO.P,J1,9*%
%TO.N,Net-(J1-Pad9)*%
X111740000Y-88900000D03*
%TO.P,J1,10*%
%TO.N,Net-(J1-Pad10)*%
X106700000Y-88900000D03*
%TO.P,J1,11*%
%TO.N,Net-(J1-Pad11)*%
X111740000Y-91440000D03*
%TO.P,J1,12*%
%TO.N,GND*%
X106700000Y-91440000D03*
%TO.P,J1,13*%
%TO.N,Net-(J1-Pad13)*%
X111740000Y-93980000D03*
%TO.P,J1,14*%
%TO.N,Net-(J1-Pad14)*%
X106700000Y-93980000D03*
%TO.P,J1,15*%
%TO.N,Net-(J1-Pad15)*%
X111740000Y-96520000D03*
%TO.P,J1,16*%
%TO.N,Net-(J1-Pad16)*%
X106700000Y-96520000D03*
%TO.P,J1,17*%
%TO.N,Net-(J1-Pad17)*%
X111740000Y-99060000D03*
%TO.P,J1,18*%
%TO.N,Net-(J1-Pad18)*%
X106700000Y-99060000D03*
%TO.P,J1,19*%
%TO.N,Net-(J1-Pad19)*%
X111740000Y-101600000D03*
%TO.P,J1,20*%
%TO.N,Net-(J1-Pad20)*%
X106700000Y-101600000D03*
%TO.P,J1,21*%
%TO.N,Net-(J1-Pad21)*%
X111740000Y-104140000D03*
%TO.P,J1,22*%
%TO.N,Net-(J1-Pad22)*%
X106700000Y-104140000D03*
%TO.P,J1,23*%
%TO.N,Net-(J1-Pad23)*%
X111740000Y-106680000D03*
%TO.P,J1,24*%
%TO.N,Net-(J1-Pad24)*%
X106700000Y-106680000D03*
%TO.P,J1,25*%
%TO.N,Net-(J1-Pad25)*%
X111740000Y-109220000D03*
%TO.P,J1,26*%
%TO.N,Net-(J1-Pad26)*%
X106700000Y-109220000D03*
%TO.P,J1,27*%
%TO.N,Net-(J1-Pad27)*%
X111740000Y-111760000D03*
%TO.P,J1,28*%
%TO.N,Net-(J1-Pad28)*%
X106700000Y-111760000D03*
%TO.P,J1,29*%
%TO.N,+3V3*%
X111740000Y-114300000D03*
%TO.P,J1,30*%
%TO.N,GND*%
X106700000Y-114300000D03*
%TO.P,J1,31*%
%TO.N,Net-(J1-Pad31)*%
X111740000Y-116840000D03*
%TO.P,J1,32*%
%TO.N,Net-(J1-Pad32)*%
X106700000Y-116840000D03*
%TO.P,J1,33*%
%TO.N,Net-(J1-Pad33)*%
X111740000Y-119380000D03*
%TO.P,J1,34*%
%TO.N,Net-(J1-Pad34)*%
X106700000Y-119380000D03*
%TO.P,J1,35*%
%TO.N,Net-(J1-Pad35)*%
X111740000Y-121920000D03*
%TO.P,J1,36*%
%TO.N,Net-(J1-Pad36)*%
X106700000Y-121920000D03*
%TO.P,J1,37*%
%TO.N,Net-(J1-Pad37)*%
X111740000Y-124460000D03*
%TO.P,J1,38*%
%TO.N,Net-(J1-Pad38)*%
X106700000Y-124460000D03*
%TO.P,J1,39*%
%TO.N,Net-(J1-Pad39)*%
X111740000Y-127000000D03*
%TO.P,J1,40*%
%TO.N,Net-(J1-Pad40)*%
X106700000Y-127000000D03*
%TD*%
%TO.P,R1,1*%
%TO.N,Net-(D1-Pad1)*%
%TA.AperFunction,SMDPad,CuDef*%
G36*
G01*
X121195000Y-78840000D02*
X121195000Y-78640000D01*
G75*
G02*
X121295000Y-78540000I100000J0D01*
G01*
X121730000Y-78540000D01*
G75*
G02*
X121830000Y-78640000I0J-100000D01*
G01*
X121830000Y-78840000D01*
G75*
G02*
X121730000Y-78940000I-100000J0D01*
G01*
X121295000Y-78940000D01*
G75*
G02*
X121195000Y-78840000I0J100000D01*
G01*
G37*
%TD.AperFunction*%
%TO.P,R1,2*%
%TO.N,GND*%
%TA.AperFunction,SMDPad,CuDef*%
G36*
G01*
X122010000Y-78840000D02*
X122010000Y-78640000D01*
G75*
G02*
X122110000Y-78540000I100000J0D01*
G01*
X122545000Y-78540000D01*
G75*
G02*
X122645000Y-78640000I0J-100000D01*
G01*
X122645000Y-78840000D01*
G75*
G02*
X122545000Y-78940000I-100000J0D01*
G01*
X122110000Y-78940000D01*
G75*
G02*
X122010000Y-78840000I0J100000D01*
G01*
G37*
%TD.AperFunction*%
%TD*%
%TO.P,R2,2*%
%TO.N,GND*%
%TA.AperFunction,SMDPad,CuDef*%
G36*
G01*
X122010000Y-83920000D02*
X122010000Y-83720000D01*
G75*
G02*
X122110000Y-83620000I100000J0D01*
G01*
X122545000Y-83620000D01*
G75*
G02*
X122645000Y-83720000I0J-100000D01*
G01*
X122645000Y-83920000D01*
G75*
G02*
X122545000Y-84020000I-100000J0D01*
G01*
X122110000Y-84020000D01*
G75*
G02*
X122010000Y-83920000I0J100000D01*
G01*
G37*
%TD.AperFunction*%
%TO.P,R2,1*%
%TO.N,Net-(D2-Pad1)*%
%TA.AperFunction,SMDPad,CuDef*%
G36*
G01*
X121195000Y-83920000D02*
X121195000Y-83720000D01*
G75*
G02*
X121295000Y-83620000I100000J0D01*
G01*
X121730000Y-83620000D01*
G75*
G02*
X121830000Y-83720000I0J-100000D01*
G01*
X121830000Y-83920000D01*
G75*
G02*
X121730000Y-84020000I-100000J0D01*
G01*
X121295000Y-84020000D01*
G75*
G02*
X121195000Y-83920000I0J100000D01*
G01*
G37*
%TD.AperFunction*%
%TD*%
%TO.P,R3,1*%
%TO.N,Net-(D3-Pad1)*%
%TA.AperFunction,SMDPad,CuDef*%
G36*
G01*
X121195000Y-89000000D02*
X121195000Y-88800000D01*
G75*
G02*
X121295000Y-88700000I100000J0D01*
G01*
X121730000Y-88700000D01*
G75*
G02*
X121830000Y-88800000I0J-100000D01*
G01*
X121830000Y-89000000D01*
G75*
G02*
X121730000Y-89100000I-100000J0D01*
G01*
X121295000Y-89100000D01*
G75*
G02*
X121195000Y-89000000I0J100000D01*
G01*
G37*
%TD.AperFunction*%
%TO.P,R3,2*%
%TO.N,GND*%
%TA.AperFunction,SMDPad,CuDef*%
G36*
G01*
X122010000Y-89000000D02*
X122010000Y-88800000D01*
G75*
G02*
X122110000Y-88700000I100000J0D01*
G01*
X122545000Y-88700000D01*
G75*
G02*
X122645000Y-88800000I0J-100000D01*
G01*
X122645000Y-89000000D01*
G75*
G02*
X122545000Y-89100000I-100000J0D01*
G01*
X122110000Y-89100000D01*
G75*
G02*
X122010000Y-89000000I0J100000D01*
G01*
G37*
%TD.AperFunction*%
%TD*%
%TO.P,R4,2*%
%TO.N,GND*%
%TA.AperFunction,SMDPad,CuDef*%
G36*
G01*
X122010000Y-94080000D02*
X122010000Y-93880000D01*
G75*
G02*
X122110000Y-93780000I100000J0D01*
G01*
X122545000Y-93780000D01*
G75*
G02*
X122645000Y-93880000I0J-100000D01*
G01*
X122645000Y-94080000D01*
G75*
G02*
X122545000Y-94180000I-100000J0D01*
G01*
X122110000Y-94180000D01*
G75*
G02*
X122010000Y-94080000I0J100000D01*
G01*
G37*
%TD.AperFunction*%
%TO.P,R4,1*%
%TO.N,Net-(D4-Pad1)*%
%TA.AperFunction,SMDPad,CuDef*%
G36*
G01*
X121195000Y-94080000D02*
X121195000Y-93880000D01*
G75*
G02*
X121295000Y-93780000I100000J0D01*
G01*
X121730000Y-93780000D01*
G75*
G02*
X121830000Y-93880000I0J-100000D01*
G01*
X121830000Y-94080000D01*
G75*
G02*
X121730000Y-94180000I-100000J0D01*
G01*
X121295000Y-94180000D01*
G75*
G02*
X121195000Y-94080000I0J100000D01*
G01*
G37*
%TD.AperFunction*%
%TD*%
%TO.P,R5,1*%
%TO.N,Net-(D5-Pad3)*%
%TA.AperFunction,SMDPad,CuDef*%
G36*
G01*
X99605000Y-78205000D02*
X99605000Y-78005000D01*
G75*
G02*
X99705000Y-77905000I100000J0D01*
G01*
X100140000Y-77905000D01*
G75*
G02*
X100240000Y-78005000I0J-100000D01*
G01*
X100240000Y-78205000D01*
G75*
G02*
X100140000Y-78305000I-100000J0D01*
G01*
X99705000Y-78305000D01*
G75*
G02*
X99605000Y-78205000I0J100000D01*
G01*
G37*
%TD.AperFunction*%
%TO.P,R5,2*%
%TO.N,Net-(J1-Pad2)*%
%TA.AperFunction,SMDPad,CuDef*%
G36*
G01*
X100420000Y-78205000D02*
X100420000Y-78005000D01*
G75*
G02*
X100520000Y-77905000I100000J0D01*
G01*
X100955000Y-77905000D01*
G75*
G02*
X101055000Y-78005000I0J-100000D01*
G01*
X101055000Y-78205000D01*
G75*
G02*
X100955000Y-78305000I-100000J0D01*
G01*
X100520000Y-78305000D01*
G75*
G02*
X100420000Y-78205000I0J100000D01*
G01*
G37*
%TD.AperFunction*%
%TD*%
%TO.P,R6,1*%
%TO.N,Net-(D5-Pad2)*%
%TA.AperFunction,SMDPad,CuDef*%
G36*
G01*
X99605000Y-82015000D02*
X99605000Y-81815000D01*
G75*
G02*
X99705000Y-81715000I100000J0D01*
G01*
X100140000Y-81715000D01*
G75*
G02*
X100240000Y-81815000I0J-100000D01*
G01*
X100240000Y-82015000D01*
G75*
G02*
X100140000Y-82115000I-100000J0D01*
G01*
X99705000Y-82115000D01*
G75*
G02*
X99605000Y-82015000I0J100000D01*
G01*
G37*
%TD.AperFunction*%
%TO.P,R6,2*%
%TO.N,Net-(J1-Pad4)*%
%TA.AperFunction,SMDPad,CuDef*%
G36*
G01*
X100420000Y-82015000D02*
X100420000Y-81815000D01*
G75*
G02*
X100520000Y-81715000I100000J0D01*
G01*
X100955000Y-81715000D01*
G75*
G02*
X101055000Y-81815000I0J-100000D01*
G01*
X101055000Y-82015000D01*
G75*
G02*
X100955000Y-82115000I-100000J0D01*
G01*
X100520000Y-82115000D01*
G75*
G02*
X100420000Y-82015000I0J100000D01*
G01*
G37*
%TD.AperFunction*%
%TD*%
%TO.P,R7,2*%
%TO.N,Net-(J1-Pad6)*%
%TA.AperFunction,SMDPad,CuDef*%
G36*
G01*
X100420000Y-85825000D02*
X100420000Y-85625000D01*
G75*
G02*
X100520000Y-85525000I100000J0D01*
G01*
X100955000Y-85525000D01*
G75*
G02*
X101055000Y-85625000I0J-100000D01*
G01*
X101055000Y-85825000D01*
G75*
G02*
X100955000Y-85925000I-100000J0D01*
G01*
X100520000Y-85925000D01*
G75*
G02*
X100420000Y-85825000I0J100000D01*
G01*
G37*
%TD.AperFunction*%
%TO.P,R7,1*%
%TO.N,Net-(D5-Pad1)*%
%TA.AperFunction,SMDPad,CuDef*%
G36*
G01*
X99605000Y-85825000D02*
X99605000Y-85625000D01*
G75*
G02*
X99705000Y-85525000I100000J0D01*
G01*
X100140000Y-85525000D01*
G75*
G02*
X100240000Y-85625000I0J-100000D01*
G01*
X100240000Y-85825000D01*
G75*
G02*
X100140000Y-85925000I-100000J0D01*
G01*
X99705000Y-85925000D01*
G75*
G02*
X99605000Y-85825000I0J100000D01*
G01*
G37*
%TD.AperFunction*%
%TD*%
%TO.P,R8,2*%
%TO.N,Net-(J1-Pad24)*%
%TA.AperFunction,SMDPad,CuDef*%
G36*
G01*
X98515000Y-105510000D02*
X98515000Y-105310000D01*
G75*
G02*
X98615000Y-105210000I100000J0D01*
G01*
X99050000Y-105210000D01*
G75*
G02*
X99150000Y-105310000I0J-100000D01*
G01*
X99150000Y-105510000D01*
G75*
G02*
X99050000Y-105610000I-100000J0D01*
G01*
X98615000Y-105610000D01*
G75*
G02*
X98515000Y-105510000I0J100000D01*
G01*
G37*
%TD.AperFunction*%
%TO.P,R8,1*%
%TO.N,Net-(R8-Pad1)*%
%TA.AperFunction,SMDPad,CuDef*%
G36*
G01*
X97700000Y-105510000D02*
X97700000Y-105310000D01*
G75*
G02*
X97800000Y-105210000I100000J0D01*
G01*
X98235000Y-105210000D01*
G75*
G02*
X98335000Y-105310000I0J-100000D01*
G01*
X98335000Y-105510000D01*
G75*
G02*
X98235000Y-105610000I-100000J0D01*
G01*
X97800000Y-105610000D01*
G75*
G02*
X97700000Y-105510000I0J100000D01*
G01*
G37*
%TD.AperFunction*%
%TD*%
%TO.P,R9,2*%
%TO.N,Net-(J1-Pad26)*%
%TA.AperFunction,SMDPad,CuDef*%
G36*
G01*
X98515000Y-108685000D02*
X98515000Y-108485000D01*
G75*
G02*
X98615000Y-108385000I100000J0D01*
G01*
X99050000Y-108385000D01*
G75*
G02*
X99150000Y-108485000I0J-100000D01*
G01*
X99150000Y-108685000D01*
G75*
G02*
X99050000Y-108785000I-100000J0D01*
G01*
X98615000Y-108785000D01*
G75*
G02*
X98515000Y-108685000I0J100000D01*
G01*
G37*
%TD.AperFunction*%
%TO.P,R9,1*%
%TO.N,Net-(R9-Pad1)*%
%TA.AperFunction,SMDPad,CuDef*%
G36*
G01*
X97700000Y-108685000D02*
X97700000Y-108485000D01*
G75*
G02*
X97800000Y-108385000I100000J0D01*
G01*
X98235000Y-108385000D01*
G75*
G02*
X98335000Y-108485000I0J-100000D01*
G01*
X98335000Y-108685000D01*
G75*
G02*
X98235000Y-108785000I-100000J0D01*
G01*
X97800000Y-108785000D01*
G75*
G02*
X97700000Y-108685000I0J100000D01*
G01*
G37*
%TD.AperFunction*%
%TD*%
%TO.P,R10,1*%
%TO.N,Net-(R10-Pad1)*%
%TA.AperFunction,SMDPad,CuDef*%
G36*
G01*
X97700000Y-111860000D02*
X97700000Y-111660000D01*
G75*
G02*
X97800000Y-111560000I100000J0D01*
G01*
X98235000Y-111560000D01*
G75*
G02*
X98335000Y-111660000I0J-100000D01*
G01*
X98335000Y-111860000D01*
G75*
G02*
X98235000Y-111960000I-100000J0D01*
G01*
X97800000Y-111960000D01*
G75*
G02*
X97700000Y-111860000I0J100000D01*
G01*
G37*
%TD.AperFunction*%
%TO.P,R10,2*%
%TO.N,Net-(J1-Pad28)*%
%TA.AperFunction,SMDPad,CuDef*%
G36*
G01*
X98515000Y-111860000D02*
X98515000Y-111660000D01*
G75*
G02*
X98615000Y-111560000I100000J0D01*
G01*
X99050000Y-111560000D01*
G75*
G02*
X99150000Y-111660000I0J-100000D01*
G01*
X99150000Y-111860000D01*
G75*
G02*
X99050000Y-111960000I-100000J0D01*
G01*
X98615000Y-111960000D01*
G75*
G02*
X98515000Y-111860000I0J100000D01*
G01*
G37*
%TD.AperFunction*%
%TD*%
%TO.P,R11,1*%
%TO.N,Net-(R11-Pad1)*%
%TA.AperFunction,SMDPad,CuDef*%
G36*
G01*
X97700000Y-115035000D02*
X97700000Y-114835000D01*
G75*
G02*
X97800000Y-114735000I100000J0D01*
G01*
X98235000Y-114735000D01*
G75*
G02*
X98335000Y-114835000I0J-100000D01*
G01*
X98335000Y-115035000D01*
G75*
G02*
X98235000Y-115135000I-100000J0D01*
G01*
X97800000Y-115135000D01*
G75*
G02*
X97700000Y-115035000I0J100000D01*
G01*
G37*
%TD.AperFunction*%
%TO.P,R11,2*%
%TO.N,Net-(J1-Pad32)*%
%TA.AperFunction,SMDPad,CuDef*%
G36*
G01*
X98515000Y-115035000D02*
X98515000Y-114835000D01*
G75*
G02*
X98615000Y-114735000I100000J0D01*
G01*
X99050000Y-114735000D01*
G75*
G02*
X99150000Y-114835000I0J-100000D01*
G01*
X99150000Y-115035000D01*
G75*
G02*
X99050000Y-115135000I-100000J0D01*
G01*
X98615000Y-115135000D01*
G75*
G02*
X98515000Y-115035000I0J100000D01*
G01*
G37*
%TD.AperFunction*%
%TD*%
%TO.P,R12,2*%
%TO.N,Net-(J1-Pad34)*%
%TA.AperFunction,SMDPad,CuDef*%
G36*
G01*
X98742500Y-118210000D02*
X98742500Y-118010000D01*
G75*
G02*
X98842500Y-117910000I100000J0D01*
G01*
X99277500Y-117910000D01*
G75*
G02*
X99377500Y-118010000I0J-100000D01*
G01*
X99377500Y-118210000D01*
G75*
G02*
X99277500Y-118310000I-100000J0D01*
G01*
X98842500Y-118310000D01*
G75*
G02*
X98742500Y-118210000I0J100000D01*
G01*
G37*
%TD.AperFunction*%
%TO.P,R12,1*%
%TO.N,Net-(R12-Pad1)*%
%TA.AperFunction,SMDPad,CuDef*%
G36*
G01*
X97927500Y-118210000D02*
X97927500Y-118010000D01*
G75*
G02*
X98027500Y-117910000I100000J0D01*
G01*
X98462500Y-117910000D01*
G75*
G02*
X98562500Y-118010000I0J-100000D01*
G01*
X98562500Y-118210000D01*
G75*
G02*
X98462500Y-118310000I-100000J0D01*
G01*
X98027500Y-118310000D01*
G75*
G02*
X97927500Y-118210000I0J100000D01*
G01*
G37*
%TD.AperFunction*%
%TD*%
%TO.P,R13,1*%
%TO.N,Net-(R13-Pad1)*%
%TA.AperFunction,SMDPad,CuDef*%
G36*
G01*
X97700000Y-121385000D02*
X97700000Y-121185000D01*
G75*
G02*
X97800000Y-121085000I100000J0D01*
G01*
X98235000Y-121085000D01*
G75*
G02*
X98335000Y-121185000I0J-100000D01*
G01*
X98335000Y-121385000D01*
G75*
G02*
X98235000Y-121485000I-100000J0D01*
G01*
X97800000Y-121485000D01*
G75*
G02*
X97700000Y-121385000I0J100000D01*
G01*
G37*
%TD.AperFunction*%
%TO.P,R13,2*%
%TO.N,Net-(J1-Pad36)*%
%TA.AperFunction,SMDPad,CuDef*%
G36*
G01*
X98515000Y-121385000D02*
X98515000Y-121185000D01*
G75*
G02*
X98615000Y-121085000I100000J0D01*
G01*
X99050000Y-121085000D01*
G75*
G02*
X99150000Y-121185000I0J-100000D01*
G01*
X99150000Y-121385000D01*
G75*
G02*
X99050000Y-121485000I-100000J0D01*
G01*
X98615000Y-121485000D01*
G75*
G02*
X98515000Y-121385000I0J100000D01*
G01*
G37*
%TD.AperFunction*%
%TD*%
%TO.P,R14,2*%
%TO.N,Net-(J1-Pad38)*%
%TA.AperFunction,SMDPad,CuDef*%
G36*
G01*
X98515000Y-124560000D02*
X98515000Y-124360000D01*
G75*
G02*
X98615000Y-124260000I100000J0D01*
G01*
X99050000Y-124260000D01*
G75*
G02*
X99150000Y-124360000I0J-100000D01*
G01*
X99150000Y-124560000D01*
G75*
G02*
X99050000Y-124660000I-100000J0D01*
G01*
X98615000Y-124660000D01*
G75*
G02*
X98515000Y-124560000I0J100000D01*
G01*
G37*
%TD.AperFunction*%
%TO.P,R14,1*%
%TO.N,Net-(R14-Pad1)*%
%TA.AperFunction,SMDPad,CuDef*%
G36*
G01*
X97700000Y-124560000D02*
X97700000Y-124360000D01*
G75*
G02*
X97800000Y-124260000I100000J0D01*
G01*
X98235000Y-124260000D01*
G75*
G02*
X98335000Y-124360000I0J-100000D01*
G01*
X98335000Y-124560000D01*
G75*
G02*
X98235000Y-124660000I-100000J0D01*
G01*
X97800000Y-124660000D01*
G75*
G02*
X97700000Y-124560000I0J100000D01*
G01*
G37*
%TD.AperFunction*%
%TD*%
%TO.P,R15,1*%
%TO.N,Net-(R15-Pad1)*%
%TA.AperFunction,SMDPad,CuDef*%
G36*
G01*
X97700000Y-127735000D02*
X97700000Y-127535000D01*
G75*
G02*
X97800000Y-127435000I100000J0D01*
G01*
X98235000Y-127435000D01*
G75*
G02*
X98335000Y-127535000I0J-100000D01*
G01*
X98335000Y-127735000D01*
G75*
G02*
X98235000Y-127835000I-100000J0D01*
G01*
X97800000Y-127835000D01*
G75*
G02*
X97700000Y-127735000I0J100000D01*
G01*
G37*
%TD.AperFunction*%
%TO.P,R15,2*%
%TO.N,Net-(J1-Pad40)*%
%TA.AperFunction,SMDPad,CuDef*%
G36*
G01*
X98515000Y-127735000D02*
X98515000Y-127535000D01*
G75*
G02*
X98615000Y-127435000I100000J0D01*
G01*
X99050000Y-127435000D01*
G75*
G02*
X99150000Y-127535000I0J-100000D01*
G01*
X99150000Y-127735000D01*
G75*
G02*
X99050000Y-127835000I-100000J0D01*
G01*
X98615000Y-127835000D01*
G75*
G02*
X98515000Y-127735000I0J100000D01*
G01*
G37*
%TD.AperFunction*%
%TD*%
%TO.P,R16,1*%
%TO.N,Net-(J1-Pad33)*%
%TA.AperFunction,SMDPad,CuDef*%
G36*
G01*
X122645000Y-104675000D02*
X122645000Y-104875000D01*
G75*
G02*
X122545000Y-104975000I-100000J0D01*
G01*
X122110000Y-104975000D01*
G75*
G02*
X122010000Y-104875000I0J100000D01*
G01*
X122010000Y-104675000D01*
G75*
G02*
X122110000Y-104575000I100000J0D01*
G01*
X122545000Y-104575000D01*
G75*
G02*
X122645000Y-104675000I0J-100000D01*
G01*
G37*
%TD.AperFunction*%
%TO.P,R16,2*%
%TO.N,+3V3*%
%TA.AperFunction,SMDPad,CuDef*%
G36*
G01*
X121830000Y-104675000D02*
X121830000Y-104875000D01*
G75*
G02*
X121730000Y-104975000I-100000J0D01*
G01*
X121295000Y-104975000D01*
G75*
G02*
X121195000Y-104875000I0J100000D01*
G01*
X121195000Y-104675000D01*
G75*
G02*
X121295000Y-104575000I100000J0D01*
G01*
X121730000Y-104575000D01*
G75*
G02*
X121830000Y-104675000I0J-100000D01*
G01*
G37*
%TD.AperFunction*%
%TD*%
%TO.P,R17,2*%
%TO.N,+3V3*%
%TA.AperFunction,SMDPad,CuDef*%
G36*
G01*
X121830000Y-111660000D02*
X121830000Y-111860000D01*
G75*
G02*
X121730000Y-111960000I-100000J0D01*
G01*
X121295000Y-111960000D01*
G75*
G02*
X121195000Y-111860000I0J100000D01*
G01*
X121195000Y-111660000D01*
G75*
G02*
X121295000Y-111560000I100000J0D01*
G01*
X121730000Y-111560000D01*
G75*
G02*
X121830000Y-111660000I0J-100000D01*
G01*
G37*
%TD.AperFunction*%
%TO.P,R17,1*%
%TO.N,Net-(J1-Pad35)*%
%TA.AperFunction,SMDPad,CuDef*%
G36*
G01*
X122645000Y-111660000D02*
X122645000Y-111860000D01*
G75*
G02*
X122545000Y-111960000I-100000J0D01*
G01*
X122110000Y-111960000D01*
G75*
G02*
X122010000Y-111860000I0J100000D01*
G01*
X122010000Y-111660000D01*
G75*
G02*
X122110000Y-111560000I100000J0D01*
G01*
X122545000Y-111560000D01*
G75*
G02*
X122645000Y-111660000I0J-100000D01*
G01*
G37*
%TD.AperFunction*%
%TD*%
%TO.P,R18,1*%
%TO.N,Net-(J1-Pad37)*%
%TA.AperFunction,SMDPad,CuDef*%
G36*
G01*
X122645000Y-118645000D02*
X122645000Y-118845000D01*
G75*
G02*
X122545000Y-118945000I-100000J0D01*
G01*
X122110000Y-118945000D01*
G75*
G02*
X122010000Y-118845000I0J100000D01*
G01*
X122010000Y-118645000D01*
G75*
G02*
X122110000Y-118545000I100000J0D01*
G01*
X122545000Y-118545000D01*
G75*
G02*
X122645000Y-118645000I0J-100000D01*
G01*
G37*
%TD.AperFunction*%
%TO.P,R18,2*%
%TO.N,+3V3*%
%TA.AperFunction,SMDPad,CuDef*%
G36*
G01*
X121830000Y-118645000D02*
X121830000Y-118845000D01*
G75*
G02*
X121730000Y-118945000I-100000J0D01*
G01*
X121295000Y-118945000D01*
G75*
G02*
X121195000Y-118845000I0J100000D01*
G01*
X121195000Y-118645000D01*
G75*
G02*
X121295000Y-118545000I100000J0D01*
G01*
X121730000Y-118545000D01*
G75*
G02*
X121830000Y-118645000I0J-100000D01*
G01*
G37*
%TD.AperFunction*%
%TD*%
%TO.P,R19,2*%
%TO.N,+3V3*%
%TA.AperFunction,SMDPad,CuDef*%
G36*
G01*
X121830000Y-125630000D02*
X121830000Y-125830000D01*
G75*
G02*
X121730000Y-125930000I-100000J0D01*
G01*
X121295000Y-125930000D01*
G75*
G02*
X121195000Y-125830000I0J100000D01*
G01*
X121195000Y-125630000D01*
G75*
G02*
X121295000Y-125530000I100000J0D01*
G01*
X121730000Y-125530000D01*
G75*
G02*
X121830000Y-125630000I0J-100000D01*
G01*
G37*
%TD.AperFunction*%
%TO.P,R19,1*%
%TO.N,Net-(J1-Pad39)*%
%TA.AperFunction,SMDPad,CuDef*%
G36*
G01*
X122645000Y-125630000D02*
X122645000Y-125830000D01*
G75*
G02*
X122545000Y-125930000I-100000J0D01*
G01*
X122110000Y-125930000D01*
G75*
G02*
X122010000Y-125830000I0J100000D01*
G01*
X122010000Y-125630000D01*
G75*
G02*
X122110000Y-125530000I100000J0D01*
G01*
X122545000Y-125530000D01*
G75*
G02*
X122645000Y-125630000I0J-100000D01*
G01*
G37*
%TD.AperFunction*%
%TD*%
D12*
%TO.P,SW1,1*%
%TO.N,GND*%
X132970001Y-102670001D03*
X132970001Y-106820001D03*
%TO.P,SW1,2*%
%TO.N,Net-(J1-Pad33)*%
X130820001Y-102670001D03*
X130820001Y-106820001D03*
%TD*%
%TO.P,SW2,2*%
%TO.N,Net-(J1-Pad35)*%
X131005000Y-113835000D03*
X131005000Y-109685000D03*
%TO.P,SW2,1*%
%TO.N,GND*%
X133155000Y-113835000D03*
X133155000Y-109685000D03*
%TD*%
%TO.P,SW3,1*%
%TO.N,GND*%
X133155000Y-116670000D03*
X133155000Y-120820000D03*
%TO.P,SW3,2*%
%TO.N,Net-(J1-Pad37)*%
X131005000Y-116670000D03*
X131005000Y-120820000D03*
%TD*%
%TO.P,SW4,2*%
%TO.N,Net-(J1-Pad39)*%
X131005000Y-127805000D03*
X131005000Y-123655000D03*
%TO.P,SW4,1*%
%TO.N,GND*%
X133155000Y-127805000D03*
X133155000Y-123655000D03*
%TD*%
D13*
%TO.P,U1,1*%
%TO.N,Net-(R12-Pad1)*%
X88820000Y-118450000D03*
%TO.P,U1,2*%
%TO.N,Net-(R11-Pad1)*%
X88820000Y-117010000D03*
%TO.P,U1,3*%
%TO.N,GND*%
X88820000Y-115570000D03*
%TO.P,U1,4*%
%TO.N,Net-(R10-Pad1)*%
X88820000Y-114130000D03*
%TO.P,U1,5*%
%TO.N,Net-(R15-Pad1)*%
X88820000Y-112690000D03*
%TO.P,U1,6*%
%TO.N,Net-(R9-Pad1)*%
X78820000Y-112690000D03*
%TO.P,U1,7*%
%TO.N,Net-(R8-Pad1)*%
X78820000Y-114130000D03*
%TO.P,U1,8*%
%TO.N,GND*%
X78820000Y-115570000D03*
%TO.P,U1,9*%
%TO.N,Net-(R13-Pad1)*%
X78820000Y-117010000D03*
%TO.P,U1,10*%
%TO.N,Net-(R14-Pad1)*%
X78820000Y-118450000D03*
%TD*%
D14*
%TO.N,GND*%
X104140000Y-91440000D03*
%TO.N,Net-(J1-Pad33)*%
X116205000Y-115570000D03*
X125730000Y-108585000D03*
%TO.N,Net-(J1-Pad35)*%
X118110000Y-116205000D03*
X118110000Y-116205000D03*
X125730000Y-116205000D03*
%TO.N,Net-(J1-Pad37)*%
X116840000Y-121285000D03*
X125730000Y-121285000D03*
%TO.N,Net-(J1-Pad39)*%
X118745000Y-123825000D03*
X118745000Y-123825000D03*
X125730000Y-123825000D03*
%TO.N,Net-(R14-Pad1)*%
X96610000Y-125095000D03*
X96610000Y-128360000D03*
%TO.N,Net-(R15-Pad1)*%
X95250000Y-119290000D03*
X94615000Y-113030000D03*
%TD*%
D15*
%TO.N,Net-(D1-Pad2)*%
X111740000Y-78740000D02*
X117085000Y-78740000D01*
%TO.N,Net-(D1-Pad1)*%
X119135000Y-78740000D02*
X121512500Y-78740000D01*
%TO.N,Net-(D2-Pad1)*%
X119380000Y-83820000D02*
X121512500Y-83820000D01*
%TO.N,Net-(D2-Pad2)*%
X114790000Y-81280000D02*
X117330000Y-83820000D01*
X111740000Y-81280000D02*
X114790000Y-81280000D01*
%TO.N,Net-(D3-Pad2)*%
X111740000Y-83820000D02*
X115570000Y-83820000D01*
X116840000Y-88900000D02*
X115570000Y-87630000D01*
X117085000Y-88900000D02*
X116840000Y-88900000D01*
X115570000Y-83820000D02*
X115570000Y-87630000D01*
%TO.N,Net-(D3-Pad1)*%
X119135000Y-88900000D02*
X121512500Y-88900000D01*
%TO.N,Net-(D4-Pad1)*%
X119135000Y-93980000D02*
X121512500Y-93980000D01*
%TO.N,Net-(D4-Pad2)*%
X111740000Y-86360000D02*
X114300000Y-86360000D01*
X116840000Y-93980000D02*
X117085000Y-93980000D01*
X114300000Y-91440000D02*
X116840000Y-93980000D01*
X114300000Y-86360000D02*
X114300000Y-91440000D01*
%TO.N,Net-(D5-Pad1)*%
X98840000Y-85725000D02*
X95095000Y-81980000D01*
X99922500Y-85725000D02*
X98840000Y-85725000D01*
%TO.N,Net-(D5-Pad2)*%
X98587500Y-80580000D02*
X95095000Y-80580000D01*
X99922500Y-81915000D02*
X98587500Y-80580000D01*
%TO.N,GND*%
X122327500Y-78740000D02*
X122327500Y-83820000D01*
X122327500Y-83820000D02*
X122327500Y-88900000D01*
X122327500Y-88900000D02*
X122327500Y-93980000D01*
X124280000Y-93980000D02*
X122327500Y-93980000D01*
X132970001Y-102670001D02*
X124280000Y-93980000D01*
X132970001Y-102670001D02*
X132970001Y-106820001D01*
X132970001Y-109500001D02*
X133155000Y-109685000D01*
X132970001Y-106820001D02*
X132970001Y-109500001D01*
X133155000Y-109685000D02*
X133155000Y-113835000D01*
X133155000Y-113835000D02*
X133155000Y-116670000D01*
X133155000Y-116670000D02*
X133155000Y-120820000D01*
X133155000Y-120820000D02*
X133155000Y-123655000D01*
X133155000Y-123655000D02*
X133155000Y-127805000D01*
X106700000Y-91440000D02*
X104140000Y-91440000D01*
X101055000Y-91440000D02*
X91595000Y-81980000D01*
X104140000Y-91440000D02*
X101055000Y-91440000D01*
%TO.N,Net-(D5-Pad3)*%
X94070000Y-78105000D02*
X91595000Y-80580000D01*
X99922500Y-78105000D02*
X94070000Y-78105000D01*
%TO.N,Net-(J1-Pad2)*%
X101372500Y-78740000D02*
X100737500Y-78105000D01*
X106700000Y-78740000D02*
X101372500Y-78740000D01*
%TO.N,Net-(J1-Pad4)*%
X101372500Y-81280000D02*
X100737500Y-81915000D01*
X106700000Y-81280000D02*
X101372500Y-81280000D01*
%TO.N,Net-(J1-Pad6)*%
X102642500Y-83820000D02*
X100737500Y-85725000D01*
X106700000Y-83820000D02*
X102642500Y-83820000D01*
%TO.N,Net-(J1-Pad24)*%
X100102500Y-106680000D02*
X98832500Y-105410000D01*
X106700000Y-106680000D02*
X100102500Y-106680000D01*
%TO.N,Net-(J1-Pad26)*%
X99467500Y-109220000D02*
X98832500Y-108585000D01*
X106700000Y-109220000D02*
X99467500Y-109220000D01*
%TO.N,Net-(J1-Pad28)*%
X106700000Y-111760000D02*
X99060000Y-111760000D01*
%TO.N,+3V3*%
X118972500Y-114300000D02*
X121512500Y-111760000D01*
X111740000Y-114300000D02*
X118972500Y-114300000D01*
X121512500Y-111760000D02*
X121512500Y-118745000D01*
X121512500Y-118745000D02*
X121512500Y-125730000D01*
X121512500Y-104775000D02*
X121512500Y-111760000D01*
%TO.N,Net-(J1-Pad32)*%
X100737500Y-116840000D02*
X98832500Y-114935000D01*
X106700000Y-116840000D02*
X100737500Y-116840000D01*
%TO.N,Net-(J1-Pad33)*%
X128775000Y-104775000D02*
X130820001Y-106820001D01*
X130820001Y-102729999D02*
X128775000Y-104775000D01*
X130820001Y-102670001D02*
X130820001Y-102729999D01*
X111740000Y-119380000D02*
X113030000Y-119380000D01*
X111740000Y-119380000D02*
X112395000Y-119380000D01*
X112395000Y-119380000D02*
X116205000Y-115570000D01*
X125730000Y-108585000D02*
X125730000Y-104775000D01*
X125730000Y-104775000D02*
X128775000Y-104775000D01*
X122327500Y-104775000D02*
X125730000Y-104775000D01*
%TO.N,Net-(J1-Pad34)*%
X100330000Y-119380000D02*
X99060000Y-118110000D01*
X106700000Y-119380000D02*
X100330000Y-119380000D01*
%TO.N,Net-(J1-Pad35)*%
X128930000Y-111760000D02*
X131005000Y-113835000D01*
X131005000Y-109685000D02*
X130980000Y-109685000D01*
X130980000Y-109685000D02*
X128905000Y-111760000D01*
X128905000Y-111760000D02*
X128930000Y-111760000D01*
X111740000Y-121920000D02*
X112395000Y-121920000D01*
X112395000Y-121920000D02*
X118110000Y-116205000D01*
X125730000Y-116205000D02*
X125730000Y-111760000D01*
X125730000Y-111760000D02*
X128905000Y-111760000D01*
X122327500Y-111760000D02*
X125730000Y-111760000D01*
%TO.N,Net-(J1-Pad36)*%
X99467500Y-121920000D02*
X98832500Y-121285000D01*
X106700000Y-121920000D02*
X99467500Y-121920000D01*
%TO.N,Net-(J1-Pad37)*%
X128930000Y-118745000D02*
X131005000Y-120820000D01*
X122327500Y-118745000D02*
X128930000Y-118745000D01*
X131005000Y-116670000D02*
X130980000Y-116670000D01*
X128930000Y-118720000D02*
X128930000Y-118745000D01*
X130980000Y-116670000D02*
X128930000Y-118720000D01*
X111740000Y-124460000D02*
X113665000Y-124460000D01*
X113665000Y-124460000D02*
X116840000Y-121285000D01*
X125730000Y-121285000D02*
X125730000Y-118745000D01*
%TO.N,Net-(J1-Pad38)*%
X106700000Y-124460000D02*
X98832500Y-124460000D01*
%TO.N,Net-(J1-Pad39)*%
X128930000Y-125730000D02*
X131005000Y-127805000D01*
X131005000Y-123655000D02*
X130980000Y-123655000D01*
X130980000Y-123655000D02*
X128905000Y-125730000D01*
X111740000Y-127000000D02*
X115570000Y-127000000D01*
X115570000Y-127000000D02*
X118745000Y-123825000D01*
X125730000Y-123825000D02*
X125730000Y-125730000D01*
X125730000Y-125730000D02*
X128930000Y-125730000D01*
X122327500Y-125730000D02*
X125730000Y-125730000D01*
%TO.N,Net-(J1-Pad40)*%
X99467500Y-127000000D02*
X98832500Y-127635000D01*
X106700000Y-127000000D02*
X99467500Y-127000000D01*
%TO.N,Net-(R8-Pad1)*%
X83664998Y-105410000D02*
X98017500Y-105410000D01*
X77094999Y-111979999D02*
X83664998Y-105410000D01*
X77094999Y-113400001D02*
X77094999Y-111979999D01*
X77824998Y-114130000D02*
X77094999Y-113400001D01*
X78820000Y-114130000D02*
X77824998Y-114130000D01*
%TO.N,Net-(R9-Pad1)*%
X82925000Y-108585000D02*
X98017500Y-108585000D01*
X78820000Y-112690000D02*
X82925000Y-108585000D01*
%TO.N,Net-(R10-Pad1)*%
X95647500Y-114130000D02*
X98017500Y-111760000D01*
X88820000Y-114130000D02*
X95647500Y-114130000D01*
%TO.N,Net-(R11-Pad1)*%
X95942500Y-117010000D02*
X98017500Y-114935000D01*
X88820000Y-117010000D02*
X95942500Y-117010000D01*
%TO.N,Net-(R12-Pad1)*%
X89160000Y-118110000D02*
X88820000Y-118450000D01*
X98245000Y-118110000D02*
X89160000Y-118110000D01*
%TO.N,Net-(R13-Pad1)*%
X78820000Y-117010000D02*
X82085000Y-117010000D01*
X82085000Y-117010000D02*
X84455000Y-119380000D01*
X84455000Y-119380000D02*
X90805000Y-119380000D01*
X91620001Y-118564999D02*
X95704999Y-118564999D01*
X90805000Y-119380000D02*
X91620001Y-118564999D01*
X98017500Y-120877500D02*
X98017500Y-121285000D01*
X95704999Y-118564999D02*
X98017500Y-120877500D01*
%TO.N,Net-(R14-Pad1)*%
X98017500Y-124460000D02*
X97155000Y-124460000D01*
X97155000Y-124460000D02*
X96520000Y-125095000D01*
X96520000Y-125095000D02*
X96610000Y-125095000D01*
X96610000Y-128360000D02*
X95340000Y-128360000D01*
X95340000Y-128360000D02*
X94615000Y-127635000D01*
X94615000Y-127635000D02*
X94615000Y-121285000D01*
X94615000Y-121285000D02*
X93980000Y-120650000D01*
X93980000Y-120650000D02*
X83820000Y-120650000D01*
X83820000Y-120650000D02*
X82550000Y-119380000D01*
X82550000Y-119380000D02*
X78740000Y-119380000D01*
X78740000Y-118530000D02*
X78820000Y-118450000D01*
X78740000Y-119380000D02*
X78740000Y-118530000D01*
%TO.N,Net-(R15-Pad1)*%
X95250000Y-127000000D02*
X95250000Y-119380000D01*
X95885000Y-127635000D02*
X95250000Y-127000000D01*
X95250000Y-119380000D02*
X95250000Y-119290000D01*
X98017500Y-127635000D02*
X95885000Y-127635000D01*
X89160000Y-113030000D02*
X88820000Y-112690000D01*
X94615000Y-113030000D02*
X89160000Y-113030000D01*
%TD*%
M02*
